<svg xmlns="http://www.w3.org/2000/svg" xmlns:xlink="http://www.w3.org/1999/xlink" width="672" height="146" viewBox="0 0 672 146">
  <defs>
    <filter id="Rectangle_6" x="0" y="0" width="44" height="146" filterUnits="userSpaceOnUse">
      <feOffset dy="3" input="SourceAlpha"/>
      <feGaussianBlur stdDeviation="3" result="blur"/>
      <feFlood flood-opacity="0.161"/>
      <feComposite operator="in" in2="blur"/>
      <feComposite in="SourceGraphic"/>
    </filter>
    <filter id="Rectangle_6-2" x="0" y="0" width="44" height="146" filterUnits="userSpaceOnUse">
      <feOffset dy="3" input="SourceAlpha"/>
      <feGaussianBlur stdDeviation="3" result="blur-2"/>
      <feFlood flood-opacity="0.161" result="color"/>
      <feComposite operator="out" in="SourceGraphic" in2="blur-2"/>
      <feComposite operator="in" in="color"/>
      <feComposite operator="in" in2="SourceGraphic"/>
    </filter>
    <filter id="Rectangle_7" x="175" y="0" width="497" height="146" filterUnits="userSpaceOnUse">
      <feOffset dy="3" input="SourceAlpha"/>
      <feGaussianBlur stdDeviation="3" result="blur-3"/>
      <feFlood flood-opacity="0.161"/>
      <feComposite operator="in" in2="blur-3"/>
      <feComposite in="SourceGraphic"/>
    </filter>
    <filter id="Rectangle_7-2" x="175" y="0" width="497" height="146" filterUnits="userSpaceOnUse">
      <feOffset dy="3" input="SourceAlpha"/>
      <feGaussianBlur stdDeviation="3" result="blur-4"/>
      <feFlood flood-opacity="0.161" result="color-2"/>
      <feComposite operator="out" in="SourceGraphic" in2="blur-4"/>
      <feComposite operator="in" in="color-2"/>
      <feComposite operator="in" in2="SourceGraphic"/>
    </filter>
    <filter id="Path_5" x="26.278" y="0" width="166.722" height="146" filterUnits="userSpaceOnUse">
      <feOffset dy="3" input="SourceAlpha"/>
      <feGaussianBlur stdDeviation="3" result="blur-5"/>
      <feFlood flood-opacity="0.161"/>
      <feComposite operator="in" in2="blur-5"/>
      <feComposite in="SourceGraphic"/>
    </filter>
    <filter id="Path_5-2" x="26.278" y="0" width="166.722" height="146" filterUnits="userSpaceOnUse">
      <feOffset dy="3" input="SourceAlpha"/>
      <feGaussianBlur stdDeviation="3" result="blur-6"/>
      <feFlood flood-opacity="0.161" result="color-3"/>
      <feComposite operator="out" in="SourceGraphic" in2="blur-6"/>
      <feComposite operator="in" in="color-3"/>
      <feComposite operator="in" in2="SourceGraphic"/>
    </filter>
  </defs>
  <g data-type="innerShadowGroup">
    <g transform="matrix(1, 0, 0, 1, 0, 0)" filter="url(#Rectangle_6)">
      <path id="Rectangle_6-3" data-name="Rectangle 6" d="M10,0H26a0,0,0,0,1,0,0V128a0,0,0,0,1,0,0H10A10,10,0,0,1,0,118V10A10,10,0,0,1,10,0Z" transform="translate(9 6)" fill="#eabab9"/>
    </g>
    <g transform="matrix(1, 0, 0, 1, 0, 0)" filter="url(#Rectangle_6-2)">
      <path id="Rectangle_6-4" data-name="Rectangle 6" d="M10,0H26a0,0,0,0,1,0,0V128a0,0,0,0,1,0,0H10A10,10,0,0,1,0,118V10A10,10,0,0,1,10,0Z" transform="translate(9 6)" fill="#fff"/>
    </g>
  </g>
  <g data-type="innerShadowGroup">
    <g transform="matrix(1, 0, 0, 1, 0, 0)" filter="url(#Rectangle_7)">
      <path id="Rectangle_7-3" data-name="Rectangle 7" d="M0,0H469a10,10,0,0,1,10,10V118a10,10,0,0,1-10,10H0a0,0,0,0,1,0,0V0A0,0,0,0,1,0,0Z" transform="translate(184 6)" fill="#435f7e"/>
    </g>
    <g transform="matrix(1, 0, 0, 1, 0, 0)" filter="url(#Rectangle_7-2)">
      <path id="Rectangle_7-4" data-name="Rectangle 7" d="M0,0H469a10,10,0,0,1,10,10V118a10,10,0,0,1-10,10H0a0,0,0,0,1,0,0V0A0,0,0,0,1,0,0Z" transform="translate(184 6)" fill="#fff"/>
    </g>
  </g>
  <g data-type="innerShadowGroup">
    <g transform="matrix(1, 0, 0, 1, 0, 0)" filter="url(#Path_5)">
      <path id="Path_5-3" data-name="Path 5" d="M0,0H148.722V128H0Z" transform="translate(35.28 6)" fill="#eee"/>
    </g>
    <g transform="matrix(1, 0, 0, 1, 0, 0)" filter="url(#Path_5-2)">
      <path id="Path_5-4" data-name="Path 5" d="M0,0H148.722V128H0Z" transform="translate(35.28 6)" fill="#fff"/>
    </g>
  </g>
</svg>
