<?xml version="1.0" encoding="UTF-8"?>
<svg id="Lager_1" data-name="Lager 1" xmlns="http://www.w3.org/2000/svg" viewBox="0 0 363.04 124.11">
  <defs>
    <style>
      .cls-1 {
        fill: none;
      }

      .cls-2 {
        fill: #1d1d1b;
      }

      .cls-3 {
        fill: #fff;
      }
    </style>
  </defs>
  <g>
    <circle class="cls-2" cx="181.67" cy="39.67" r="38.5"/>
    <g>
      <path class="cls-1" d="M185.42,65.24c-.06-.79-.62-1.55-1.92-1.48-.36.02-.56.04-.62.11-.04.04-.04.11-.02.24l.26,2.63c.02.17.03.31.05.34.03.02.18.03.75-.03.35-.03.8-.11,1.1-.39.34-.32.45-.78.41-1.41Z"/>
      <path class="cls-1" d="M178,38.1c.55.04.64.18.7.33.06.15.02.27-.35.95-.03.05.12.12.15.08,1.85-2.14,4.83-1.2,5.44-.97.7.26.58.62.48.74-.43.49-2,1.39-2.33,1.53-.33.13-.44.11-.64-.09-.2-.21-.36-.84-.38-.91-.02-.08,0-.69,0-.76,0-.07-.16-.08-.18-.02-.02.06-.14.54-.17.61-.03.08-.12.14-.2.13-.08-.01-.82-.25-.87-.26-.05,0-.11.12-.07.15.04.03.79.51.94.61.15.1.26.37.32.69.02.11-.02.27-.21.31-.19.04-.97-.19-1.14-.26-.17-.07-.33-.49-.36-.56-.03-.07-.19-.05-.2.04,0,.06.02.41-.03.52-.07.15-.35.27-.8.32-.08,0-.07.21.02.21.39,0,.51.17.54.28.03.11,0,.14-.21.66-.04.1.14.15.18.11.58-.67,1.05-.82,1.84-.79.17,0,.24.02.17.12-.24.33-.89,1.12-2.51,2.65-.13.12-.15.32-.05.45.02.04.46.65.49.69.03.04.09.06.15.04,1.37-.59,2.29-.85,2.29-.85.79,1.33,1.42,2.18,1.94,2.03.52-.15.7-.9.7-.9,0,0,.38.57.95.76.05.02.08-.02.08-.06v-4.01h-1.61c-.06,0-.1-.01-.14-.04-1.2-.8-1.37-.93-1.04-1.1.08-.04.16-.07.23-.1,2-.91,3.13-1.77,3.13-2.38,0-.66-.7-1.82-1.41-2.36-.04-.03-.15.1-.12.14.03.03.49.67.36.88-.13.21-.93-.03-1.22-.2-.29-.17-.63-.86-.81-1.14-.18-.28-.51-.52-.55-.54-.04-.02-.13.09-.09.13.17.17.62.91.44,1.23-.17.32-.87.37-1.16.09-.3-.28-.66-1.26-.69-1.33-.03-.07-.18,0-.17.03.02.1.13.73-.15.92-.29.19-.87-.06-1.18-.23-.06-.03-.17.08-.13.12.04.04.67.61.67.75s-.36.23-1.02.39c-.06.01-.04.16,0,.17ZM180.98,43.39c-.19.04-.36-.05-.4-.21-.04-.16.09-.32.27-.36.19-.04.37.05.4.21.04.16-.09.32-.27.36Z"/>
      <path class="cls-1" d="M169.81,38.1c.55.04.64.18.7.33.06.15.02.27-.35.95-.03.05.12.12.15.08,1.85-2.14,4.83-1.2,5.44-.97.7.26.58.62.47.74-.43.49-2,1.39-2.33,1.53-.33.13-.44.11-.64-.09-.2-.21-.36-.84-.38-.91-.02-.08,0-.69,0-.76,0-.07-.16-.08-.18-.02-.02.06-.14.54-.17.61-.03.08-.12.14-.2.13-.08-.01-.82-.25-.87-.26-.05,0-.11.12-.07.15.04.03.79.51.94.61.15.1.26.37.32.69.02.11-.02.27-.21.31-.19.04-.97-.19-1.14-.26-.17-.07-.33-.49-.36-.56-.03-.07-.19-.05-.2.04,0,.06.02.41-.03.52-.07.15-.35.27-.8.32-.08,0-.06.21.02.21.39,0,.51.17.54.28.03.11,0,.14-.21.66-.04.1.15.15.18.11.58-.67,1.05-.82,1.84-.79.17,0,.24.02.17.12-.24.33-.89,1.12-2.51,2.65-.13.12-.15.32-.06.45.03.04.46.65.49.69.03.04.09.06.15.04,1.38-.59,2.29-.85,2.29-.85.79,1.33,1.42,2.18,1.94,2.03.52-.15.7-.9.7-.9,0,0,.38.57.95.76.05.02.08-.02.08-.06v-4.01h-1.61c-.06,0-.1-.01-.14-.04-1.2-.8-1.37-.93-1.04-1.1.08-.04.16-.07.23-.1,2-.91,3.13-1.77,3.13-2.38,0-.66-.7-1.82-1.41-2.36-.04-.03-.15.1-.12.14.03.03.49.67.36.88-.13.21-.93-.03-1.22-.2-.29-.17-.63-.86-.82-1.14-.18-.28-.51-.52-.55-.54-.04-.02-.13.09-.09.13.17.17.62.91.44,1.23-.17.32-.87.37-1.17.09-.3-.28-.66-1.26-.69-1.33-.03-.07-.18,0-.17.03.02.1.13.73-.15.92-.29.19-.87-.06-1.18-.23-.06-.03-.17.08-.13.12.04.04.66.61.66.75s-.36.23-1.02.39c-.06.01-.04.16,0,.17ZM172.8,43.39c-.19.04-.37-.05-.4-.21-.04-.16.09-.32.27-.36.19-.04.37.05.4.21.03.16-.09.32-.27.36Z"/>
      <path class="cls-1" d="M196.13,17.13l1.26.88c.09.07.18.12.23.11.04-.01.08-.13.11-.23l.65-2.1s.14-.53.18-.65c-.14.09-.53.34-.53.34,0,0-1.92,1.35-1.93,1.36-.06.04-.14.1-.14.13h0s.1.1.18.16Z"/>
      <path class="cls-1" d="M199.46,14.23c.28.2.66.11.89-.23.23-.32.2-.71-.08-.91-.28-.19-.66-.1-.89.23-.23.33-.19.72.08.91Z"/>
      <path class="cls-1" d="M186.18,38.1c.55.04.64.18.7.33.06.15.01.27-.35.95-.03.05.12.12.15.08,1.85-2.14,4.83-1.2,5.44-.97.7.26.58.62.47.74-.43.49-2,1.39-2.33,1.53-.33.13-.44.11-.64-.09-.2-.21-.36-.84-.38-.91-.02-.08,0-.69,0-.76,0-.07-.16-.08-.18-.02-.02.06-.14.54-.17.61-.03.08-.12.14-.2.13-.08-.01-.82-.25-.87-.26-.05,0-.11.12-.07.15.04.03.79.51.94.61.15.1.26.37.32.69.02.11-.02.27-.21.31-.19.04-.97-.19-1.14-.26-.17-.07-.33-.49-.36-.56-.03-.07-.19-.05-.2.04,0,.06.02.41-.03.52-.07.15-.35.27-.8.32-.08,0-.07.21.02.21.39,0,.51.17.54.28.03.11,0,.14-.21.66-.04.1.15.15.18.11.58-.67,1.05-.82,1.84-.79.17,0,.24.02.17.12-.24.33-.89,1.12-2.51,2.65-.13.12-.15.32-.05.45.02.04.46.65.49.69.03.04.09.06.15.04,1.37-.59,2.29-.85,2.29-.85.79,1.33,1.42,2.18,1.94,2.03.52-.15.7-.9.7-.9,0,0,.38.57.95.76.05.02.08-.02.08-.06v-4.01h-1.61c-.06,0-.1-.01-.14-.04-1.2-.8-1.37-.93-1.04-1.1.08-.04.16-.07.23-.1,2-.91,3.13-1.77,3.13-2.38,0-.66-.7-1.82-1.41-2.36-.04-.03-.15.1-.12.14.03.03.49.67.36.88-.13.21-.93-.03-1.22-.2-.29-.17-.63-.86-.82-1.14-.18-.28-.51-.52-.55-.54-.04-.02-.13.09-.09.13.17.17.62.91.44,1.23-.17.32-.87.37-1.16.09-.3-.28-.66-1.26-.69-1.33-.03-.07-.18,0-.18.03.02.1.14.73-.15.92-.29.19-.87-.06-1.18-.23-.06-.03-.17.08-.13.12.04.04.67.61.67.75s-.36.23-1.02.39c-.06.01-.04.16,0,.17ZM189.17,43.39c-.19.04-.36-.05-.4-.21-.03-.16.09-.32.27-.36.19-.04.37.05.4.21.04.16-.09.32-.27.36Z"/>
      <path class="cls-3" d="M167.43,52.65h28.05v-21.45h-28.05v21.45ZM186.18,37.94c.66-.17,1.02-.26,1.02-.39s-.62-.71-.67-.75c-.04-.04.06-.15.13-.12.31.17.89.42,1.18.23.29-.19.17-.82.15-.92,0-.04.15-.1.18-.03.03.07.39,1.05.69,1.33.3.28.99.23,1.16-.09.18-.32-.27-1.06-.44-1.23-.04-.04.05-.15.09-.13.04.02.37.26.55.54.18.28.52.98.82,1.14.29.17,1.09.41,1.22.2.13-.21-.34-.85-.36-.88-.03-.03.08-.17.12-.14.71.54,1.41,1.7,1.41,2.36,0,.61-1.13,1.47-3.13,2.38-.08.03-.15.07-.23.1-.33.17-.16.3,1.04,1.1.05.03.08.04.14.04h1.61v4.01s-.02.08-.08.06c-.57-.19-.95-.76-.95-.76,0,0-.18.75-.7.9-.52.15-1.15-.7-1.94-2.03,0,0-.92.26-2.29.85-.06.03-.12,0-.15-.04-.03-.04-.46-.66-.49-.69-.09-.13-.08-.33.05-.45,1.62-1.53,2.27-2.32,2.51-2.65.07-.1,0-.12-.17-.12-.79-.03-1.26.12-1.84.79-.04.04-.22-.01-.18-.11.21-.52.24-.55.21-.66-.03-.11-.15-.28-.54-.28-.08,0-.09-.2-.02-.21.45-.06.73-.17.8-.32.05-.1.03-.46.03-.52,0-.09.17-.11.2-.04.02.07.19.5.36.56.17.07.95.3,1.14.26.19-.04.23-.2.21-.31-.06-.32-.16-.59-.32-.69-.15-.1-.9-.57-.94-.61-.04-.03.02-.16.07-.15.05.01.79.25.87.26.08.01.17-.05.2-.13.03-.07.15-.55.17-.61.02-.06.17-.05.18.02,0,.07-.02.68,0,.76.02.08.18.71.38.91.2.21.31.23.64.09.33-.13,1.9-1.04,2.33-1.53.11-.12.23-.48-.47-.74-.61-.23-3.59-1.17-5.44.97-.03.04-.18-.03-.15-.08.37-.69.41-.8.35-.95-.06-.15-.15-.29-.7-.33-.05,0-.07-.15,0-.17ZM177.99,37.94c.66-.17,1.02-.26,1.02-.39s-.62-.71-.67-.75c-.04-.04.06-.15.13-.12.31.17.89.42,1.18.23.29-.19.17-.82.15-.92,0-.04.15-.1.17-.03.03.07.39,1.05.69,1.33.3.28.99.23,1.16-.09.17-.32-.27-1.06-.44-1.23-.04-.04.05-.15.09-.13.04.02.37.26.55.54.18.28.52.98.81,1.14.29.17,1.09.41,1.22.2.13-.21-.34-.85-.36-.88-.03-.03.08-.17.12-.14.71.54,1.41,1.7,1.41,2.36,0,.61-1.13,1.47-3.13,2.38-.08.03-.15.07-.23.1-.33.17-.16.3,1.04,1.1.05.03.08.04.14.04h1.61v4.01s-.02.08-.08.06c-.57-.19-.95-.76-.95-.76,0,0-.18.75-.7.9-.52.15-1.15-.7-1.94-2.03,0,0-.92.26-2.29.85-.06.03-.12,0-.15-.04-.03-.04-.46-.66-.49-.69-.09-.13-.08-.33.05-.45,1.62-1.53,2.27-2.32,2.51-2.65.07-.1,0-.12-.17-.12-.79-.03-1.26.12-1.84.79-.04.04-.22-.01-.18-.11.2-.52.24-.55.21-.66-.03-.11-.15-.28-.54-.28-.08,0-.09-.2-.02-.21.45-.06.73-.17.8-.32.05-.1.03-.46.03-.52,0-.09.17-.11.2-.04.03.07.19.5.36.56.17.07.95.3,1.14.26.19-.04.23-.2.21-.31-.06-.32-.17-.59-.32-.69-.15-.1-.9-.57-.94-.61-.04-.03.02-.16.07-.15.05.01.79.25.87.26.08.01.17-.05.2-.13.03-.07.15-.55.17-.61.02-.06.17-.05.18.02,0,.07-.02.68,0,.76.02.08.18.71.38.91.2.21.31.23.64.09.33-.13,1.91-1.04,2.33-1.53.11-.12.22-.48-.48-.74-.61-.23-3.59-1.17-5.44.97-.03.04-.18-.03-.15-.08.37-.69.41-.8.35-.95-.06-.15-.15-.29-.7-.33-.05,0-.07-.15,0-.17ZM169.8,37.94c.66-.17,1.02-.26,1.02-.39s-.62-.71-.66-.75c-.04-.04.06-.15.13-.12.31.17.89.42,1.18.23.29-.19.17-.82.15-.92,0-.04.15-.1.17-.03.03.07.39,1.05.69,1.33.3.28.99.23,1.17-.09.17-.32-.27-1.06-.44-1.23-.04-.04.05-.15.09-.13.04.02.37.26.55.54.18.28.52.98.82,1.14.29.17,1.09.41,1.22.2.13-.21-.34-.85-.36-.88-.03-.03.08-.17.12-.14.71.54,1.41,1.7,1.41,2.36,0,.61-1.13,1.47-3.13,2.38-.08.03-.15.07-.23.1-.33.17-.16.3,1.04,1.1.05.03.08.04.14.04h1.61v4.01s-.02.08-.08.06c-.57-.19-.95-.76-.95-.76,0,0-.18.75-.7.9-.52.15-1.15-.7-1.94-2.03,0,0-.92.26-2.29.85-.06.03-.12,0-.15-.04-.03-.04-.46-.66-.49-.69-.09-.13-.08-.33.06-.45,1.62-1.53,2.27-2.32,2.51-2.65.07-.1,0-.12-.17-.12-.79-.03-1.26.12-1.84.79-.04.04-.22-.01-.18-.11.21-.52.24-.55.21-.66-.03-.11-.15-.28-.54-.28-.08,0-.09-.2-.02-.21.45-.06.73-.17.8-.32.05-.1.03-.46.03-.52,0-.09.17-.11.2-.04.03.07.19.5.36.56.17.07.95.3,1.14.26.19-.04.23-.2.21-.31-.06-.32-.16-.59-.32-.69-.15-.1-.9-.57-.94-.61-.04-.03.02-.16.07-.15.05.01.79.25.87.26.08.01.17-.05.2-.13.03-.07.15-.55.17-.61.02-.06.17-.05.18.02,0,.07-.02.68,0,.76.02.08.18.71.38.91.2.21.31.23.64.09.33-.13,1.91-1.04,2.33-1.53.11-.12.23-.48-.47-.74-.61-.23-3.59-1.17-5.44.97-.03.04-.18-.03-.15-.08.37-.69.41-.8.35-.95-.06-.15-.15-.29-.7-.33-.05,0-.07-.15,0-.17Z"/>
      <path class="cls-3" d="M172.67,42.82c-.19.04-.31.2-.27.36.03.16.21.25.4.21.19-.04.31-.2.27-.36-.03-.16-.21-.25-.4-.21Z"/>
      <path class="cls-3" d="M180.86,42.82c-.19.04-.31.2-.27.36.04.16.21.25.4.21.19-.04.31-.2.27-.36-.03-.16-.21-.25-.4-.21Z"/>
      <path class="cls-3" d="M189.04,42.82c-.19.04-.31.2-.27.36.04.16.21.25.4.21.19-.04.31-.2.27-.36-.03-.16-.21-.25-.4-.21Z"/>
      <polygon class="cls-3" points="195.48 28.87 181.48 22.74 167.43 28.88 167.43 29.95 195.48 29.95 195.48 28.87"/>
      <path class="cls-3" d="M204.86,25.72c.68,0,1.23-.55,1.23-1.23s-.55-1.23-1.23-1.23-1.23.55-1.23,1.23.55,1.23,1.23,1.23Z"/>
      <path class="cls-3" d="M158.2,25.72c.68,0,1.23-.55,1.23-1.23s-.55-1.23-1.23-1.23-1.23.55-1.23,1.23.55,1.23,1.23,1.23Z"/>
      <path class="cls-3" d="M153.63,37.93l1.37.24c.63.11,1.81.31,2.13.52.12.07.2.29.19.57v.27s.21.11.21.11l.13-.06s.1-1.2.1-1.2l.17-1.26s-.15-.13-.15-.13l-.18.02s-.07.3-.07.3c-.05.27-.14.44-.27.49-.17.06-.71.08-2.28-.19l-1.27-.22c-1.33-.23-2.84-.88-2.53-2.68.11-.66.37-1.12.8-1.42.55-.39,1.37-.48,2.5-.28l2.39.41c1.15.2,1.27.24,1.19.86l-.04.27c.02.07.07.1.14.11.07.01.16,0,.2-.05,0-.02.28-1.39.28-1.39l.34-1.37c-.01-.08-.08-.12-.15-.14-.08-.02-.15-.01-.18.03-.01.02-.1.29-.1.29-.19.59-.35.6-1.52.4l-2.62-.45c-1.33-.23-2.19-.1-2.8.42-.49.41-.83,1.08-.98,1.99-.15.86.02,1.74.45,2.29.48.63,1.31,1.04,2.54,1.25Z"/>
      <path class="cls-3" d="M158.89,49.25c.07.01.21.16.4.52l.07.14c.08.05.16.05.23.02.06-.03.1-.07.11-.12,0-.03-.42-1.13-.42-1.13l-.41-1.28c-.04-.06-.11-.08-.18-.07-.08.01-.15.06-.17.12,0,.03.04.21.04.21.09.4.09.61.02.69-.16.19-.93.48-2.15.8l-2.33.62c-.2.05-.39.1-.44.08.04,0,1.5-2.28,1.5-2.28l.9-1.37.13-.2c.39-.59,1.32-1.97,1.77-2.29,0,0,0,0,0,0,0-.07-.13-.53-.13-.53,0,0-.23-1.23-.23-1.23-.04-.06-.1-.08-.16-.08-.08,0-.17.05-.2.11,0,.03.01.22.01.22.02.21.01.51-.11.71-.19.27-.4.34-.72.43l-3.17.84-.17.05c-.58.16-1.67.46-2.05.41-.11-.02-.22-.16-.29-.39,0,0-.1-.28-.1-.28-.02-.02-.2-.03-.2-.03l-.15.12s.27,1.14.27,1.14l.23,1.27s.16.07.16.07l.19-.1s0,0,0,0c0-.06-.03-.37-.03-.37-.02-.12-.02-.23-.01-.32.01-.12.04-.2.09-.25.32-.28,2-.74,2.19-.79l2.37-.64c.24-.06.48-.12.64-.12-.06.09-1.09,1.6-1.09,1.6l-2.19,3.29c-.86,1.29-1.13,1.66-1.27,1.83.02.16.1.24.21.25.19-.07.82-.25,1.87-.53l2.75-.74c.53-.14,1.78-.48,2.19-.41Z"/>
      <path class="cls-3" d="M162.69,54.68c.05-.04.11-.11.1-.18,0-.02-.82-1.15-.82-1.15l-.77-1.19c-.07-.05-.16-.02-.22.02-.03.02-.11.07-.11.15,0,.02.15.27.15.27.31.54.19.65-.79,1.32l-3.31,2.26c-.97.67-1.09.72-1.51.25l-.19-.21c-.1-.03-.18.02-.23.06-.05.05-.08.1-.07.15,0,.02.84,1.17.84,1.17l.76,1.17c.07.05.16.02.22-.02.03-.02.11-.07.11-.15,0-.02-.14-.27-.14-.27-.29-.56-.2-.65.78-1.32l3.31-2.26c.98-.67,1.12-.74,1.52-.26l.18.22c.08.04.16-.01.19-.04Z"/>
      <path class="cls-3" d="M170.54,61.1c.03-.06.04-.11.02-.15-.02-.02-.92-.59-.92-.59l-.93-.67c-.08-.01-.15.02-.2.08-.04.04-.06.09-.06.14,0,.02,0,.03,0,.05.01.02.16.15.16.15.22.19.29.31.28.37,0,.01,0,.02,0,.03l-.34.29-2.35,1.35s-1.94,1.1-2.35,1.33c.05-.19,1.03-3.97,1.03-3.97.24-.89.46-1.5.51-1.61.03-.03.12-.04.47.19l.14.09c.08,0,.14-.03.18-.09.04-.06.06-.14.03-.2-.01-.02-1.08-.88-1.08-.88l-.88-.78c-.08-.02-.15,0-.2.06-.05.06-.07.13-.06.19.01.02.15.17.15.17.32.34.32.62.14,1.28l-1.39,5.15c-.12.5-.3,1.05-.49,1.5,0,.04.13.18.13.18,0,0,.14.06.14.06.56-.38,1.79-1.11,2.73-1.64l1.32-.74c1.16-.65,2.13-1.13,2.65-1.36.27-.12.47-.12.68,0l.29.17c.1,0,.17-.08.2-.14Z"/>
      <path class="cls-3" d="M177.49,63.22c-.13,0-.77-.2-1.44-.41,0,0-2.03-.63-2.03-.63l-1.26-.42c-.08,0-.13.08-.16.15-.01.04-.04.13,0,.18.02.01.18.09.18.09.58.26.56.39.21,1.5l-1.2,3.87c-.35,1.13-.45,1.23-1.03,1.11l-.36-.08c-.1.04-.13.12-.14.19,0,.07,0,.13.04.16.02,0,1.49.43,1.49.43l.97.3,2.87.93c.28-.26.81-1.01,1-1.37,0-.09-.04-.15-.1-.19-.06-.04-.14-.05-.19-.03-.43.45-.85.76-1.08.81-.27.05-.61-.02-1.4-.26-.96-.3-1.12-.48-1.2-.63-.11-.22-.03-.59.14-1.15l.47-1.52c.08-.25.08-.25.39-.15l.62.19c.39.12.66.21.8.3.19.11.2.29.19.47l-.03.45c.03.09.12.13.18.14.07.02.14,0,.17-.03.01-.02.12-.42.12-.42l.17-.64.23-.65.15-.42c-.01-.07-.06-.12-.12-.15-.06-.03-.16-.04-.22,0-.01.02-.24.43-.24.43-.14.25-.22.27-.34.27-.13,0-.46-.07-.92-.22l-.62-.19q-.31-.1-.23-.36l.67-2.15c.06-.2.1-.31.15-.34.04-.02.11,0,.25.04l.77.24c.47.15.81.26,1.01.38.47.29.48.66.48,1.17v.06c.02.06.08.1.15.12.06.01.15.02.2-.02.02-.02.05-.17.05-.17.1-.49.25-1.16.24-1.35v-.04s-.04,0-.04,0Z"/>
      <path class="cls-3" d="M188.77,70.07c-.29.01-.6-.06-.82-.21-.86-.55-1.59-1.41-2.61-2.67-.08-.1-.08-.16-.05-.2.31-.15,1.33-.79,1.2-2.04-.09-.92-.65-1.33-1.11-1.51-.5-.21-1.08-.18-1.72-.15h-.19c-1.02.06-1.8.13-2.47.23-.06.03-.09.09-.09.16,0,.07.03.16.09.2.02,0,.38.03.38.03.41.03.47.16.57,1.27l.39,4.06c.12,1.2.09,1.26-.5,1.37l-.28.05c-.07.08-.07.17-.05.23.02.07.05.11.09.13.02,0,1.41-.1,1.41-.1l1.33-.04c.08-.04.09-.12.09-.16,0-.07-.01-.16-.07-.2-.02,0-.26-.03-.26-.03-.62-.05-.65-.16-.77-1.35l-.14-1.41q-.02-.2.46-.25c.44-.04.63.06.82.27l1.33,1.54c.9.98,1.47,1.26,2.49,1.13l.5-.12s.06-.1.05-.15c-.01-.04-.05-.08-.09-.09ZM183.91,67.04c-.57.06-.72.05-.75.03-.02-.03-.04-.17-.05-.34l-.26-2.63c-.01-.13-.01-.2.02-.24.06-.07.26-.09.62-.11,1.3-.07,1.87.69,1.92,1.48.04.63-.07,1.09-.41,1.41-.3.28-.75.36-1.1.39Z"/>
      <path class="cls-3" d="M193.65,63.86l-1.06-.03c-.74-.04-1.24-.27-1.49-.69-.08-.14-.18-.37-.19-.63,0-.34.14-.73.71-1.06.88-.51,1.48-.1,1.91.33.06.03.12.01.18-.02.06-.04.12-.11.12-.18-.25-.45-.67-.95-.88-1.12-.05,0-.41.13-.41.13-.3.07-.68.22-.99.4-1.21.7-1.62,1.86-1.03,2.89.48.83,1.38,1.05,2.06,1.08l1.27.07c.94.04,1.3.45,1.55.88.17.3.22.63.14.93-.09.33-.33.62-.69.83-1.01.59-1.89.07-2.46-.47-.05-.03-.1-.02-.16,0-.06.03-.13.1-.14.18.28.45.82,1.09,1.08,1.25.34,0,.98-.06,1.77-.52.68-.39,1.12-.92,1.28-1.52.05-.18.07-.36.06-.54,0-.34-.11-.68-.3-1-.44-.77-1.21-1.15-2.34-1.18Z"/>
      <path class="cls-3" d="M203.3,61.9s-.25.17-.25.17c-.52.37-.61.29-1.41-.6l-2.68-2.98c-.8-.89-.88-1.02-.45-1.47l.2-.2c.03-.09-.04-.16-.06-.19-.05-.05-.13-.09-.19-.08-.02.01-1.03.97-1.03.97l-1.07.92c-.04.08,0,.16.04.21.02.03.09.1.16.09.02,0,.24-.18.24-.18.5-.38.62-.28,1.41.61l2.68,2.98c.79.88.86.99.44,1.46l-.19.21c-.01.1.04.17.09.22.06.04.11.06.16.05.02-.01,1.05-.98,1.05-.98l1.06-.91c.04-.08,0-.16-.04-.21-.02-.03-.09-.1-.16-.09Z"/>
      <path class="cls-3" d="M209.31,53.98s-.12-.07-.18-.04c-.02.02-.22.31-.22.31-.36.5-.49.46-1.5-.13l-4.35-2.49c-.16-.09-.24-.14-.25-.18-.01-.04.03-.12.1-.23l.4-.69c.31-.53.59-.85.87-.98.13-.06.43,0,.82.16.09,0,.15-.08.18-.15.03-.07.03-.14,0-.18-.32-.15-1.07-.67-1.41-1-.11-.02-.19.12-.2.18.16.3.15.37-.16.9l-2.26,3.95c-.29.5-.44.74-.73.64-.1.02-.17.17-.16.23.37.32.9.82,1.25,1.23.1.02.17-.01.23-.07.05-.05.07-.12.06-.18-.18-.25-.34-.47-.42-.83-.08-.34.18-.85.44-1.31l.31-.54c.07-.12.12-.2.16-.21.04-.01.13.04.26.11l4.37,2.5c1.03.59,1.11.7.86,1.25l-.17.37c0,.08.05.14.12.18.05.03.13.05.19.01.01-.02.76-1.39.76-1.39l.76-1.26c0-.08-.05-.15-.11-.19Z"/>
      <path class="cls-3" d="M211.56,41.62c-.09.01-.14.06-.18.13-.03.07-.04.14-.01.19.49.38.85.76.92.99.08.27.05.61-.11,1.42-.19.98-.35,1.17-.49,1.26-.21.13-.58.09-1.16-.02l-1.56-.3-.21-.08s-.01-.14.02-.29l.12-.64c.07-.39.14-.68.21-.83.09-.2.27-.23.45-.24l.45-.02c.08-.04.11-.13.12-.2,0-.07-.01-.14-.05-.17-.02,0-.43-.07-.43-.07l-.66-.1-.67-.16-.43-.1c-.07.02-.11.07-.13.14-.02.06-.02.16.02.21.02.01.45.19.45.19.26.11.29.19.31.31.02.13-.03.47-.11.94l-.12.64q-.06.32-.33.27l-2.21-.43q-.4-.08-.34-.37l.15-.8c.09-.49.17-.83.27-1.05.23-.5.6-.54,1.11-.6h.07c.06-.04.09-.09.1-.17,0-.06,0-.15-.05-.2-.03-.01-.18-.03-.18-.03-.49-.05-1.17-.12-1.36-.09h-.04s0,.05,0,.05c0,.13-.11.77-.24,1.45,0,.04-.41,2.12-.41,2.12l-.28,1.3c.02.08.1.12.16.14.04,0,.13.03.18-.03.01-.02.07-.19.07-.19.19-.6.32-.6,1.47-.38l3.98.76c1.16.22,1.28.31,1.21.9l-.04.37c.05.09.14.11.21.12.07,0,.13-.02.15-.06,0-.02.26-1.53.26-1.53l.19-.99.6-2.95c-.29-.25-1.09-.69-1.47-.84Z"/>
      <path class="cls-3" d="M205.24,33.95l-.17-.78c-.13-.6-.13-1.03,0-1.3.06-.13.32-.28.72-.41.07-.07.06-.16.04-.23-.02-.07-.07-.12-.12-.14-.35.1-1.24.19-1.72.15-.1.06-.07.21-.03.27.32.12.36.18.49.79l.97,4.46c.12.57.17.84-.11.95-.06.08,0,.24.03.28.49,0,1.22.04,1.76.12.08-.05.12-.12.12-.2,0-.07-.02-.14-.07-.18-.3-.07-.57-.14-.87-.35-.29-.21-.44-.76-.55-1.28l-.13-.61c-.03-.14-.05-.23-.02-.26.02-.04.12-.06.27-.09l4.93-.94c1.16-.22,1.3-.18,1.46.39l.11.39c.05.07.13.08.21.06.06-.01.13-.05.15-.11,0-.02-.32-1.55-.32-1.55l-.24-1.45c-.05-.07-.13-.08-.2-.07-.04,0-.13.02-.16.09,0,.02.03.38.03.38.05.62-.07.66-1.22.88l-4.93.94q-.33.06-.39-.21Z"/>
      <path class="cls-3" d="M160.86,16.92s.25-.16.25-.16c.5-.34.57-.3,1.25.65,0,0,1.59,2.14,1.59,2.14.8,1.09,1.51,1.59,2.31,1.64.63.05,1.29-.18,2.07-.73.73-.51,1.17-1.15,1.28-1.84.12-.78-.15-1.66-.85-2.7l-.71-1.06c-.17-.25-1-1.51-1.08-1.96-.03-.13.09-.32.31-.47l.22-.16s-.05-.22-.05-.22l-.15-.07s-1.01.64-1.01.64l-1.11.63s0,.18,0,.18l.15.14s.28-.13.28-.13c.25-.12.45-.15.57-.09.31.16.89,1.04,1.28,1.62l.85,1.27c.49.72.75,1.36.78,1.92.04.68-.26,1.24-.91,1.69-1.26.88-2.35.55-3.55-1.08l-1.45-1.96-.04-.06c-.65-.9-.71-1-.28-1.41l.19-.19c.03-.07,0-.14-.05-.2-.02-.02-.09-.1-.17-.08-.02.01-1.06.9-1.06.9l-1.09.84c-.04.08,0,.16.03.22.04.06.09.09.14.09Z"/>
      <path class="cls-3" d="M172.01,10.12c.66-.05.76.04.86.73l.29,2.46.2,2.28.03.35c.06.77-.08.87-.51,1.03,0,0-.24.1-.24.1-.05.05-.06.12-.05.18.02.07.06.14.11.17.03,0,1.15-.32,1.15-.32l1.23-.28c.06-.04.08-.1.08-.18,0-.06-.03-.15-.1-.18-.03,0-.45.07-.45.07-.17.03-.27.02-.34-.03-.13-.09-.2-.36-.28-.83l-.34-2.49-.03-.24s-.18-1.63-.21-1.86c.11.16.53.79.53.79l.38.58,1.36,1.97.19.28c.36.52.91,1.31,1.15,1.77.05.06.13.05.15.05.07-.01.12-.04.14-.09.11-.52.41-1.59.77-2.74l.66-2.11.22-.75s.16-.52.21-.69c.05.25.83,4.51.83,4.51.04.24.07.42.07.55,0,.26-.09.34-.42.4l-.32.06s-.06.19-.06.19l.11.17s1.36-.13,1.36-.13l1.32-.06c.06-.04.08-.09.09-.15,0-.07-.02-.16-.09-.21-.03,0-.39-.02-.39-.02-.47-.02-.52-.25-.64-.76l-.02-.08-.98-4.84c-.14-.76-.1-.95.57-1.07l.23-.04c.07-.06.06-.15.05-.18,0-.03-.03-.14-.1-.18-.03,0-1.01.1-1.01.1l-.88.03v.05s.01.1.01.15c.01.5-.2,1.16-.49,2.12l-.74,2.49s-.51,1.59-.51,1.6c0-.08-.82-1.19-.82-1.19l-.15-.2h0s-1.7-2.42-1.7-2.42c-.39-.53-.85-1.19-.88-1.66v-.05s-.95.26-.95.26c-.02,0-.9.18-.9.18-.06.04-.09.11-.09.18,0,.08.03.15.07.18.03,0,.21-.01.21-.01Z"/>
      <path class="cls-3" d="M186.11,16.37l.98.25,2.92.77c.27-.28.75-1.05.93-1.42,0-.09-.05-.15-.12-.18-.06-.04-.14-.05-.19-.02-.41.47-.81.8-1.04.86-.27.06-.61.01-1.42-.19-.97-.24-1.14-.42-1.23-.56-.12-.21-.06-.59.08-1.15l.39-1.54.09-.21s.14,0,.29.03l.63.16c.4.1.67.18.82.26.2.1.22.28.21.46v.45c.03.09.11.12.18.13.07.01.13,0,.17-.04,0-.02.09-.43.09-.43l.14-.65.19-.66.13-.43c-.01-.07-.06-.12-.13-.14-.06-.02-.16-.03-.22.01-.01.02-.21.44-.21.44-.12.26-.21.28-.32.29-.13.01-.46-.05-.93-.17l-.63-.16q-.32-.08-.25-.34l.55-2.18c.05-.21.08-.32.13-.35.04-.02.11-.01.25.03l.79.2c.48.12.82.22,1.03.33.49.26.51.63.54,1.14v.07c.03.06.09.1.16.11.06.01.15,0,.2-.03.01-.03.04-.18.04-.18.08-.49.19-1.17.17-1.35v-.04s-.04,0-.04,0c-.13,0-.77-.16-1.44-.33-.03,0-2.08-.52-2.08-.52l-1.28-.36c-.08.01-.13.09-.15.16-.01.04-.03.13.01.18.02.01.19.08.19.08.59.23.58.36.29,1.49l-.99,3.93c-.29,1.15-.38,1.26-.97,1.16l-.37-.06c-.09.04-.12.13-.13.2,0,.07.01.13.05.16.02,0,1.51.35,1.51.35Z"/>
      <path class="cls-3" d="M192.26,18.39l.69.4.32.21.64.43c.09.02.15-.02.2-.08.05-.06.07-.14.05-.2-.01-.02-.31-.24-.31-.24-.21-.16-.19-.22-.13-.3.07-.1.32-.32.74-.64l.76-.52c.18-.13.23-.13.45.03l1.52,1.07c.27.19.27.22.2.45,0,0-.36,1.25-.36,1.25-.07.23-.15.46-.23.57-.04.06-.18.03-.36-.09l-.27-.18c-.08,0-.14.03-.18.09-.05.07-.06.15-.03.21.01.02.21.16.21.16l.83.63,1.04.88c.09,0,.16-.05.19-.1.04-.06.06-.12.04-.18-.01-.02-.23-.24-.23-.24-.33-.34-.34-.57-.04-1.53l1.35-4.59.16-.56.18-.6c.43.09.85-.08,1.09-.41.32-.46.24-1.14-.3-1.52-.54-.38-1.21-.24-1.54.22-.25.36-.25.85.02,1.24l-.63.44-2.69,1.82c.08,0-2.19,1.44-1.53,1l-.73.48c-.31.21-.57.25-.84.11l-.33-.16c-.08,0-.14.05-.17.12-.03.05-.05.13-.03.19.02.02.25.15.25.15ZM199.38,13.32c.23-.32.61-.42.89-.23.28.2.31.59.08.91-.23.33-.6.43-.89.23-.28-.19-.32-.58-.08-.91ZM195.95,16.98s.09-.09.14-.13c0,0,1.93-1.36,1.93-1.36,0,0,.39-.25.53-.34-.03.12-.18.65-.18.65l-.65,2.1c-.03.1-.07.21-.11.23-.04.01-.13-.04-.23-.11l-1.26-.88c-.08-.06-.18-.13-.18-.16h0Z"/>
    </g>
  </g>
  <g>
    <path class="cls-2" d="M22.01,107.74c0-2.36-.08-6.72-.72-7.86-.27-.46-.95-.72-1.9-.8l-.95-.08c-.23-.27-.15-.76.08-.91,1.44.08,2.85.11,4.33.11,1.6,0,2.62-.04,3.99-.11.3.19.27.68.08.91l-.91.08c-.95.08-1.67.42-1.9.91-.53,1.25-.53,5.62-.53,7.75v4.29c0,3.31-.53,6.8-2.66,9.08-1.63,1.79-4.45,2.77-7.26,2.77-2.62,0-5.24-.49-7.1-2.09-2.01-1.67-2.96-4.45-2.96-8.97v-8.97c0-3.95-.08-4.6-2.28-4.79l-.95-.08c-.23-.15-.15-.8.08-.91,1.9.08,3.19.11,4.71.11s2.81-.04,4.67-.11c.23.11.3.76.08.91l-.91.08c-2.2.19-2.28.84-2.28,4.79v8.21c0,6.12,1.9,10.14,7.71,10.14,5.51,0,7.6-4.33,7.6-10.11v-4.37Z"/>
    <path class="cls-2" d="M43.67,113.13c.87,1.79,1.71,3.53,2.62,5.21h.08c1.03-1.79,1.98-3.76,2.93-5.7l3.57-7.26c1.71-3.46,2.81-5.55,2.89-7.29,1.29.11,2.09.11,2.85.11.95,0,2.2-.04,3.38-.11.23.15.23.8.04.95l-.8.08c-2.39.23-2.7.95-2.66,3.61.08,4.03.11,11.06.42,16.53.11,1.9.08,2.93,1.86,3.08l1.22.11c.23.23.19.8-.08.95-1.56-.08-3.12-.11-4.48-.11s-3.04.04-4.6.11c-.27-.19-.3-.72-.08-.95l1.1-.11c1.86-.19,1.86-.8,1.86-3.23l-.11-15.84h-.08c-.27.42-1.71,3.46-2.47,4.94l-3.38,6.65c-1.71,3.34-3.42,6.92-4.1,8.66-.08.11-.23.15-.38.15-.08,0-.27-.04-.34-.15-.65-2.01-2.47-5.74-3.34-7.6l-3.42-7.33c-.8-1.75-1.6-3.72-2.43-5.47h-.08c-.15,2.36-.27,4.56-.38,6.76-.11,2.32-.27,5.7-.27,8.93,0,2.81.23,3.42,1.71,3.53l1.44.11c.27.23.23.84-.04.95-1.29-.08-2.77-.11-4.22-.11-1.22,0-2.58.04-3.88.11-.23-.19-.3-.76-.08-.95l.84-.11c1.6-.23,2.13-.46,2.36-3.12.23-2.51.42-4.6.65-8.36.19-3.15.34-6.38.42-8.47.08-2.39-.23-2.96-2.55-3.27l-.61-.08c-.19-.23-.15-.8.15-.95,1.14.08,2.05.11,3,.11.87,0,1.9,0,3.15-.11-.15,1.48.8,3.84,1.98,6.27l4.33,8.78Z"/>
    <path class="cls-2" d="M69.93,103.9c0-3.95-.08-4.52-2.32-4.79l-.61-.08c-.23-.15-.15-.84.08-.95,1.63.08,2.93.11,4.48.11h7.14c2.43,0,4.67,0,5.13-.11.23.65.46,3.38.61,5.05-.15.23-.76.3-.95.08-.57-1.79-.91-3.12-2.89-3.61-.8-.19-2.01-.23-3.69-.23h-2.74c-1.14,0-1.14.08-1.14,1.52v7.6c0,1.06.11,1.06,1.25,1.06h2.2c1.6,0,2.77-.08,3.23-.23.46-.15.72-.38.91-1.33l.3-1.56c.19-.23.84-.23.99.04,0,.91-.15,2.39-.15,3.84,0,1.37.15,2.81.15,3.65-.15.27-.8.27-.99.04l-.34-1.48c-.15-.68-.42-1.25-1.18-1.44-.53-.15-1.44-.19-2.93-.19h-2.2c-1.14,0-1.25.04-1.25,1.03v5.36c0,2.01.11,3.31.72,3.95.46.46,1.25.87,4.6.87,2.93,0,4.03-.15,4.86-.57.68-.38,1.71-1.71,2.7-3.69.27-.19.8-.08.95.27-.27,1.33-1.22,4.25-1.71,5.28-3.42-.08-6.8-.11-10.18-.11h-3.42c-1.63,0-2.93.04-5.17.11-.23-.11-.3-.72-.08-.95l1.25-.11c2.17-.19,2.36-.76,2.36-4.75v-13.68Z"/>
    <path class="cls-2" d="M104.24,114.46c-.27-.84-.42-.95-1.56-.95h-5.74c-.95,0-1.18.11-1.44.91l-1.33,3.99c-.57,1.71-.84,2.74-.84,3.15,0,.46.19.68,1.1.76l1.25.11c.27.19.27.8-.08.95-.99-.08-2.17-.08-3.95-.11-1.25,0-2.62.08-3.65.11-.23-.15-.3-.76-.08-.95l1.25-.11c.91-.08,1.75-.49,2.28-1.86.68-1.75,1.75-4.22,3.34-8.47l3.88-10.26c.53-1.37.76-2.09.65-2.7.91-.27,1.56-.95,1.98-1.44.23,0,.49.08.57.34.49,1.67,1.1,3.42,1.67,5.09l5.21,15.27c1.1,3.27,1.6,3.84,3.23,4.03l1.03.11c.27.19.19.8,0,.95-1.56-.08-2.89-.11-4.6-.11-1.82,0-3.27.08-4.37.11-.3-.15-.34-.76-.08-.95l1.1-.11c.8-.08,1.33-.3,1.33-.68,0-.42-.19-1.1-.49-2.01l-1.67-5.17ZM96.72,111.08c-.3.87-.27.91.8.91h4.67c1.1,0,1.18-.15.84-1.18l-2.05-6.19c-.3-.91-.65-1.94-.87-2.39h-.08c-.11.19-.49,1.1-.91,2.24l-2.39,6.61ZM104.01,93.37c0,1.63-1.33,3.08-3.23,3.08s-3.23-1.44-3.23-3.08,1.33-3.08,3.23-3.08,3.23,1.48,3.23,3.08ZM100.78,95.39c.99,0,1.71-.84,1.71-2.01s-.72-1.98-1.71-1.98-1.71.84-1.71,1.98.76,2.01,1.71,2.01Z"/>
    <path class="cls-2" d="M147.97,107.74c0-2.36-.08-6.72-.72-7.86-.27-.46-.95-.72-1.9-.8l-.95-.08c-.23-.27-.15-.76.08-.91,1.44.08,2.85.11,4.33.11,1.6,0,2.62-.04,3.99-.11.3.19.27.68.08.91l-.91.08c-.95.08-1.67.42-1.9.91-.53,1.25-.53,5.62-.53,7.75v4.29c0,3.31-.53,6.8-2.66,9.08-1.63,1.79-4.45,2.77-7.26,2.77-2.62,0-5.24-.49-7.1-2.09-2.01-1.67-2.96-4.45-2.96-8.97v-8.97c0-3.95-.08-4.6-2.28-4.79l-.95-.08c-.23-.15-.15-.8.08-.91,1.9.08,3.19.11,4.71.11s2.81-.04,4.67-.11c.23.11.3.76.08.91l-.91.08c-2.2.19-2.28.84-2.28,4.79v8.21c0,6.12,1.9,10.14,7.71,10.14,5.51,0,7.6-4.33,7.6-10.11v-4.37Z"/>
    <path class="cls-2" d="M180.16,116.82c0,1.14,0,5.66.11,6.65-.08.23-.3.42-.72.42-.46-.65-1.56-1.98-4.86-5.74l-8.81-10.03c-1.03-1.18-3.61-4.29-4.41-5.13h-.08c-.15.46-.19,1.33-.19,2.47v8.28c0,1.79.04,6.72.68,7.86.23.42.99.65,1.94.72l1.18.11c.23.3.19.76-.08.95-1.71-.08-3.04-.11-4.45-.11-1.6,0-2.62.04-3.95.11-.27-.19-.3-.72-.08-.95l1.03-.11c.87-.11,1.48-.34,1.67-.76.53-1.37.49-6,.49-7.83v-10.98c0-1.06-.04-1.86-.84-2.74-.53-.53-1.44-.8-2.36-.91l-.65-.08c-.23-.23-.23-.8.08-.95,1.6.11,3.61.11,4.29.11.61,0,1.25-.04,1.75-.11.76,1.94,5.24,6.95,6.5,8.36l3.69,4.14c2.62,2.93,4.48,5.05,6.27,6.88h.08c.15-.19.15-.8.15-1.6v-8.13c0-1.79-.04-6.72-.76-7.86-.23-.34-.84-.57-2.36-.76l-.65-.08c-.27-.23-.23-.84.08-.95,1.75.08,3.04.11,4.48.11,1.63,0,2.62-.04,3.91-.11.3.19.3.72.08.95l-.53.08c-1.22.19-1.98.49-2.13.8-.65,1.37-.57,6.08-.57,7.83v9.08Z"/>
    <path class="cls-2" d="M190.99,103.98c0-4.03-.08-4.67-2.32-4.86l-.95-.08c-.23-.15-.15-.84.08-.95,1.9.08,3.19.11,4.79.11s2.81-.04,4.71-.11c.23.11.3.8.08.95l-.95.08c-2.24.19-2.32.84-2.32,4.86v13.53c0,4.03.08,4.56,2.32,4.83l.95.11c.23.15.15.84-.08.95-1.9-.08-3.19-.11-4.71-.11-1.6,0-2.89.04-4.79.11-.23-.11-.3-.72-.08-.95l.95-.11c2.24-.27,2.32-.8,2.32-4.83v-13.53Z"/>
    <path class="cls-2" d="M204.29,102.23c-.87-2.13-1.44-2.93-3.08-3.12l-.68-.08c-.27-.23-.23-.76.08-.95,1.1.08,2.32.11,3.95.11s3-.04,4.6-.11c.27.15.34.72.08.95l-.57.08c-1.44.19-1.75.42-1.79.72.08.38.72,2.43,1.9,5.32,1.75,4.41,3.5,8.78,5.4,13.11,1.18-2.51,2.77-6.42,3.65-8.43,1.1-2.58,2.89-6.88,3.53-8.51.3-.8.34-1.22.34-1.48s-.38-.57-1.71-.72l-.68-.08c-.27-.23-.19-.8.08-.95,1.06.08,2.51.11,3.95.11,1.25,0,2.43-.04,3.69-.11.27.15.27.76.08.95l-1.14.08c-.91.08-1.48.53-1.98,1.33-1.06,1.79-2.55,4.86-4.26,8.74l-2.05,4.67c-1.52,3.5-3.3,7.9-3.95,9.92-.11.08-.27.11-.42.11-.19,0-.38-.04-.57-.11-.42-1.6-1.1-3.46-1.75-5.05l-6.69-16.49Z"/>
    <path class="cls-2" d="M232.56,103.9c0-3.95-.08-4.52-2.32-4.79l-.61-.08c-.23-.15-.15-.84.08-.95,1.63.08,2.93.11,4.48.11h7.14c2.43,0,4.67,0,5.13-.11.23.65.46,3.38.61,5.05-.15.23-.76.3-.95.08-.57-1.79-.91-3.12-2.89-3.61-.8-.19-2.01-.23-3.69-.23h-2.74c-1.14,0-1.14.08-1.14,1.52v7.6c0,1.06.11,1.06,1.25,1.06h2.2c1.6,0,2.77-.08,3.23-.23.46-.15.72-.38.91-1.33l.3-1.56c.19-.23.84-.23.99.04,0,.91-.15,2.39-.15,3.84,0,1.37.15,2.81.15,3.65-.15.27-.8.27-.99.04l-.34-1.48c-.15-.68-.42-1.25-1.18-1.44-.53-.15-1.44-.19-2.93-.19h-2.2c-1.14,0-1.25.04-1.25,1.03v5.36c0,2.01.11,3.31.72,3.95.46.46,1.25.87,4.6.87,2.93,0,4.03-.15,4.86-.57.68-.38,1.71-1.71,2.7-3.69.27-.19.8-.08.95.27-.27,1.33-1.22,4.25-1.71,5.28-3.42-.08-6.8-.11-10.18-.11h-3.42c-1.63,0-2.93.04-5.17.11-.23-.11-.3-.72-.08-.95l1.25-.11c2.17-.19,2.36-.76,2.36-4.75v-13.68Z"/>
    <path class="cls-2" d="M256.28,103.94c0-3.61-.11-4.26-1.67-4.45l-1.22-.15c-.27-.19-.27-.8.04-.95,2.13-.19,4.75-.3,8.47-.3,2.36,0,4.6.19,6.34,1.14,1.82.95,3.15,2.66,3.15,5.32,0,3.61-2.85,5.58-4.75,6.35-.19.23,0,.61.19.91,3.04,4.9,5.05,7.94,7.64,10.11.65.57,1.6.99,2.62,1.06.19.08.23.38.04.53-.34.11-.95.19-1.67.19-3.23,0-5.17-.95-7.87-4.79-.99-1.41-2.55-4.03-3.72-5.74-.57-.84-1.18-1.22-2.7-1.22-1.71,0-1.79.04-1.79.84v4.79c0,3.99.08,4.45,2.28,4.75l.8.11c.23.19.15.84-.08.95-1.71-.08-3-.11-4.52-.11-1.6,0-2.96.04-4.75.11-.23-.11-.3-.68-.08-.95l.95-.11c2.2-.27,2.28-.76,2.28-4.75v-13.64ZM259.39,109.37c0,.68,0,1.1.11,1.25.11.11.68.19,2.62.19,1.37,0,2.81-.15,3.91-.99,1.03-.8,1.9-2.13,1.9-4.71,0-3-1.86-5.85-6.08-5.85-2.36,0-2.47.15-2.47,1.22v8.89Z"/>
    <path class="cls-2" d="M285.95,123.88c-3.19,0-5.21-.99-5.93-1.41-.46-.84-.95-3.53-1.03-5.32.19-.27.76-.34.91-.11.57,1.94,2.13,5.66,6.54,5.66,3.19,0,4.75-2.09,4.75-4.37,0-1.67-.34-3.53-3.12-5.32l-3.61-2.36c-1.9-1.25-4.1-3.42-4.1-6.54,0-3.61,2.81-6.54,7.75-6.54,1.18,0,2.54.23,3.53.49.49.15,1.03.23,1.33.23.34.91.68,3.04.68,4.63-.15.23-.76.34-.95.11-.49-1.82-1.52-4.29-5.17-4.29s-4.52,2.47-4.52,4.22c0,2.2,1.82,3.8,3.23,4.67l3.04,1.9c2.39,1.48,4.75,3.69,4.75,7.29,0,4.18-3.15,7.03-8.09,7.03Z"/>
    <path class="cls-2" d="M302.41,103.98c0-4.03-.08-4.67-2.32-4.86l-.95-.08c-.23-.15-.15-.84.08-.95,1.9.08,3.19.11,4.79.11s2.81-.04,4.71-.11c.23.11.3.8.08.95l-.95.08c-2.24.19-2.32.84-2.32,4.86v13.53c0,4.03.08,4.56,2.32,4.83l.95.11c.23.15.15.84-.08.95-1.9-.08-3.19-.11-4.71-.11-1.6,0-2.89.04-4.79.11-.23-.11-.3-.72-.08-.95l.95-.11c2.24-.27,2.32-.8,2.32-4.83v-13.53Z"/>
    <path class="cls-2" d="M325.89,117.58c0,3.99.08,4.56,2.28,4.75l1.22.11c.23.15.15.84-.08.95-2.17-.08-3.46-.11-4.98-.11s-2.85.04-5.28.11c-.23-.11-.3-.76,0-.95l1.37-.11c2.17-.19,2.36-.76,2.36-4.75v-16.98c0-1.18,0-1.22-1.14-1.22h-2.09c-1.63,0-3.72.08-4.67.95-.91.84-1.29,1.67-1.71,2.62-.3.23-.84.04-.99-.27.61-1.71,1.18-4.14,1.44-5.66.11-.08.61-.11.72,0,.23,1.22,1.48,1.18,3.23,1.18h15.39c2.05,0,2.39-.08,2.96-1.06.19-.08.61-.04.68.11-.42,1.56-.68,4.64-.57,5.78-.15.3-.8.3-.99.08-.11-.95-.38-2.36-.95-2.77-.87-.65-2.32-.95-4.41-.95h-2.7c-1.14,0-1.1.04-1.1,1.29v16.91Z"/>
    <path class="cls-2" d="M351.73,117.5c0,4.07.23,4.67,2.28,4.83l1.44.11c.23.23.15.84-.08.95-2.36-.08-3.65-.11-5.17-.11-1.6,0-2.96.04-4.98.11-.23-.11-.3-.72-.08-.95l1.18-.11c2.2-.23,2.28-.76,2.28-4.83v-1.94c0-2.09-.11-2.58-1.22-4.71l-4.48-8.74c-1.29-2.51-1.86-2.7-3-2.89l-1.06-.19c-.23-.27-.19-.8.08-.95,1.22.08,2.58.11,4.41.11s3.12-.04,4.07-.11c.34.11.34.72.11.95l-.49.08c-1.33.19-1.6.38-1.6.68,0,.38.99,2.55,1.18,2.93,1.41,2.81,2.81,5.81,4.29,8.43,1.18-2.01,2.43-4.22,3.57-6.42,1.06-1.98,2.47-4.56,2.47-5.02,0-.23-.68-.49-1.6-.61l-.68-.08c-.27-.27-.23-.8.08-.95,1.37.08,2.47.11,3.65.11s2.24-.04,3.53-.11c.3.19.34.72.08.95l-1.06.19c-1.98.34-3.12,2.74-5.02,6l-2.39,4.14c-1.67,2.89-1.79,3.23-1.79,6.16v1.98Z"/>
  </g>
</svg>