<?xml version="1.0" encoding="UTF-8"?>
<svg id="Lager_1" xmlns="http://www.w3.org/2000/svg" version="1.1" viewBox="0 0 388.8 127.7">
  <!-- Generator: Adobe Illustrator 30.3.0, SVG Export Plug-In . SVG Version: 2.1.3 Build 182)  -->
  <defs>
    <style>
      .st0 {
        fill: none;
      }

      .st1 {
        fill: #1d1d1b;
      }

      .st2 {
        fill: #fff;
      }
    </style>
  </defs>
  <g>
    <circle class="st1" cx="193.5" cy="40.8" r="38.5"/>
    <g>
      <path class="st0" d="M197.2,66.4c0-.8-.6-1.6-1.9-1.5-.4,0-.6,0-.6.1,0,0,0,.1,0,.2l.3,2.6c0,.2,0,.3,0,.3,0,0,.2,0,.7,0,.4,0,.8-.1,1.1-.4.3-.3.5-.8.4-1.4Z"/>
      <path class="st0" d="M189.8,39.2c.5,0,.6.2.7.3,0,.2,0,.3-.4,1,0,0,.1.1.2,0,1.8-2.1,4.8-1.2,5.4-1,.7.3.6.6.5.7-.4.5-2,1.4-2.3,1.5-.3.1-.4.1-.6,0-.2-.2-.4-.8-.4-.9,0,0,0-.7,0-.8,0,0-.2,0-.2,0,0,0-.1.5-.2.6,0,0-.1.1-.2.1,0,0-.8-.2-.9-.3,0,0-.1.1,0,.2,0,0,.8.5.9.6.2,0,.3.4.3.7,0,.1,0,.3-.2.3-.2,0-1-.2-1.1-.3-.2,0-.3-.5-.4-.6,0,0-.2,0-.2,0,0,0,0,.4,0,.5,0,.2-.3.3-.8.3,0,0,0,.2,0,.2.4,0,.5.2.5.3,0,.1,0,.1-.2.7,0,0,.1.2.2.1.6-.7,1-.8,1.8-.8.2,0,.2,0,.2.1-.2.3-.9,1.1-2.5,2.7-.1.1-.1.3,0,.5,0,0,.5.7.5.7,0,0,0,0,.2,0,1.4-.6,2.3-.9,2.3-.9.8,1.3,1.4,2.2,1.9,2,.5-.1.7-.9.7-.9,0,0,.4.6.9.8,0,0,0,0,0,0v-4h-1.6c0,0,0,0-.1,0-1.2-.8-1.4-.9-1-1.1,0,0,.2,0,.2-.1,2-.9,3.1-1.8,3.1-2.4s-.7-1.8-1.4-2.4c0,0-.2.1-.1.1,0,0,.5.7.4.9-.1.2-.9,0-1.2-.2-.3-.2-.6-.9-.8-1.1-.2-.3-.5-.5-.6-.5,0,0-.1,0,0,.1.2.2.6.9.4,1.2-.2.3-.9.4-1.2,0-.3-.3-.7-1.3-.7-1.3,0,0-.2,0-.2,0,0,.1.1.7-.2.9-.3.2-.9,0-1.2-.2,0,0-.2,0-.1.1,0,0,.7.6.7.7s-.4.2-1,.4c0,0,0,.2,0,.2ZM192.8,44.5c-.2,0-.4,0-.4-.2,0-.2,0-.3.3-.4.2,0,.4,0,.4.2,0,.2,0,.3-.3.4Z"/>
      <path class="st0" d="M181.6,39.2c.5,0,.6.2.7.3,0,.2,0,.3-.4,1,0,0,.1.1.2,0,1.8-2.1,4.8-1.2,5.4-1,.7.3.6.6.5.7-.4.5-2,1.4-2.3,1.5-.3.1-.4.1-.6,0-.2-.2-.4-.8-.4-.9,0,0,0-.7,0-.8,0,0-.2,0-.2,0,0,0-.1.5-.2.6,0,0-.1.1-.2.1,0,0-.8-.2-.9-.3,0,0-.1.1,0,.2,0,0,.8.5.9.6.2,0,.3.4.3.7,0,.1,0,.3-.2.3-.2,0-1-.2-1.1-.3-.2,0-.3-.5-.4-.6,0,0-.2,0-.2,0,0,0,0,.4,0,.5,0,.2-.3.3-.8.3,0,0,0,.2,0,.2.4,0,.5.2.5.3,0,.1,0,.1-.2.7,0,0,.1.2.2.1.6-.7,1-.8,1.8-.8.2,0,.2,0,.2.1-.2.3-.9,1.1-2.5,2.7-.1.1-.1.3,0,.5,0,0,.5.7.5.7,0,0,0,0,.2,0,1.4-.6,2.3-.9,2.3-.9.8,1.3,1.4,2.2,1.9,2,.5-.1.7-.9.7-.9,0,0,.4.6.9.8,0,0,0,0,0,0v-4h-1.6c0,0,0,0-.1,0-1.2-.8-1.4-.9-1-1.1,0,0,.2,0,.2-.1,2-.9,3.1-1.8,3.1-2.4s-.7-1.8-1.4-2.4c0,0-.2.1-.1.1,0,0,.5.7.4.9-.1.2-.9,0-1.2-.2-.3-.2-.6-.9-.8-1.1-.2-.3-.5-.5-.6-.5,0,0-.1,0,0,.1.2.2.6.9.4,1.2-.2.3-.9.4-1.2,0-.3-.3-.7-1.3-.7-1.3,0,0-.2,0-.2,0,0,.1.1.7-.2.9-.3.2-.9,0-1.2-.2,0,0-.2,0-.1.1,0,0,.7.6.7.7s-.4.2-1,.4c0,0,0,.2,0,.2ZM184.6,44.5c-.2,0-.4,0-.4-.2,0-.2,0-.3.3-.4.2,0,.4,0,.4.2,0,.2,0,.3-.3.4Z"/>
      <path class="st0" d="M207.9,18.3l1.3.9c0,0,.2.1.2.1,0,0,0-.1.1-.2l.7-2.1s.1-.5.2-.6c-.1,0-.5.3-.5.3,0,0-1.9,1.4-1.9,1.4,0,0-.1.1-.1.1h0s.1.1.2.2Z"/>
      <path class="st0" d="M211.3,15.4c.3.2.7.1.9-.2.2-.3.2-.7,0-.9-.3-.2-.7,0-.9.2-.2.3-.2.7,0,.9Z"/>
      <path class="st0" d="M198,39.2c.6,0,.6.2.7.3,0,.2,0,.3-.4,1,0,0,.1.1.2,0,1.8-2.1,4.8-1.2,5.4-1,.7.3.6.6.5.7-.4.5-2,1.4-2.3,1.5-.3.1-.4.1-.6,0-.2-.2-.4-.8-.4-.9,0,0,0-.7,0-.8,0,0-.2,0-.2,0,0,0-.1.5-.2.6,0,0-.1.1-.2.1,0,0-.8-.2-.9-.3,0,0-.1.1,0,.2,0,0,.8.5.9.6.2,0,.3.4.3.7,0,.1,0,.3-.2.3-.2,0-1-.2-1.1-.3-.2,0-.3-.5-.4-.6,0,0-.2,0-.2,0,0,0,0,.4,0,.5,0,.2-.3.3-.8.3,0,0,0,.2,0,.2.4,0,.5.2.5.3,0,.1,0,.1-.2.7,0,0,.1.2.2.1.6-.7,1-.8,1.8-.8.2,0,.2,0,.2.1-.2.3-.9,1.1-2.5,2.7-.1.1-.1.3,0,.5,0,0,.5.7.5.7,0,0,0,0,.2,0,1.4-.6,2.3-.9,2.3-.9.8,1.3,1.4,2.2,1.9,2,.5-.1.7-.9.7-.9,0,0,.4.6.9.8,0,0,0,0,0,0v-4h-1.6c0,0,0,0-.1,0-1.2-.8-1.4-.9-1-1.1,0,0,.2,0,.2-.1,2-.9,3.1-1.8,3.1-2.4s-.7-1.8-1.4-2.4c0,0-.2.1-.1.1,0,0,.5.7.4.9-.1.2-.9,0-1.2-.2-.3-.2-.6-.9-.8-1.1-.2-.3-.5-.5-.6-.5,0,0-.1,0,0,.1.2.2.6.9.4,1.2-.2.3-.9.4-1.2,0-.3-.3-.7-1.3-.7-1.3,0,0-.2,0-.2,0,0,.1.1.7-.2.9-.3.2-.9,0-1.2-.2,0,0-.2,0-.1.1,0,0,.7.6.7.7s-.4.2-1,.4c0,0,0,.2,0,.2ZM201,44.5c-.2,0-.4,0-.4-.2,0-.2,0-.3.3-.4.2,0,.4,0,.4.2,0,.2,0,.3-.3.4Z"/>
      <path class="st2" d="M179.2,53.8h28v-21.4h-28v21.4ZM198,39.1c.7-.2,1-.3,1-.4s-.6-.7-.7-.7c0,0,0-.2.1-.1.3.2.9.4,1.2.2.3-.2.2-.8.2-.9,0,0,.1-.1.2,0,0,0,.4,1,.7,1.3.3.3,1,.2,1.2,0,.2-.3-.3-1.1-.4-1.2,0,0,0-.2,0-.1,0,0,.4.3.6.5.2.3.5,1,.8,1.1.3.2,1.1.4,1.2.2.1-.2-.3-.9-.4-.9,0,0,0-.2.1-.1.7.5,1.4,1.7,1.4,2.4s-1.1,1.5-3.1,2.4c0,0-.2,0-.2.1-.3.2-.2.3,1,1.1,0,0,0,0,.1,0h1.6v4s0,0,0,0c-.6-.2-.9-.8-.9-.8,0,0-.2.8-.7.9-.5.1-1.1-.7-1.9-2,0,0-.9.3-2.3.9,0,0-.1,0-.2,0,0,0-.5-.7-.5-.7,0-.1,0-.3,0-.5,1.6-1.5,2.3-2.3,2.5-2.7,0,0,0-.1-.2-.1-.8,0-1.3.1-1.8.8,0,0-.2,0-.2-.1.2-.5.2-.5.2-.7,0-.1-.1-.3-.5-.3,0,0,0-.2,0-.2.4,0,.7-.2.8-.3,0-.1,0-.5,0-.5,0,0,.2-.1.2,0,0,0,.2.5.4.6.2,0,1,.3,1.1.3.2,0,.2-.2.2-.3,0-.3-.2-.6-.3-.7-.2,0-.9-.6-.9-.6,0,0,0-.2,0-.2,0,0,.8.2.9.3,0,0,.2,0,.2-.1,0,0,.1-.5.2-.6,0,0,.2,0,.2,0,0,0,0,.7,0,.8,0,0,.2.7.4.9.2.2.3.2.6,0,.3-.1,1.9-1,2.3-1.5.1-.1.2-.5-.5-.7-.6-.2-3.6-1.2-5.4,1,0,0-.2,0-.2,0,.4-.7.4-.8.4-1,0-.2-.1-.3-.7-.3,0,0,0-.2,0-.2ZM189.8,39.1c.7-.2,1-.3,1-.4s-.6-.7-.7-.7c0,0,0-.2.1-.1.3.2.9.4,1.2.2.3-.2.2-.8.2-.9,0,0,.1-.1.2,0,0,0,.4,1,.7,1.3.3.3,1,.2,1.2,0,.2-.3-.3-1.1-.4-1.2,0,0,0-.2,0-.1,0,0,.4.3.6.5.2.3.5,1,.8,1.1.3.2,1.1.4,1.2.2.1-.2-.3-.9-.4-.9,0,0,0-.2.1-.1.7.5,1.4,1.7,1.4,2.4s-1.1,1.5-3.1,2.4c0,0-.2,0-.2.1-.3.2-.2.3,1,1.1,0,0,0,0,.1,0h1.6v4s0,0,0,0c-.6-.2-.9-.8-.9-.8,0,0-.2.8-.7.9-.5.1-1.1-.7-1.9-2,0,0-.9.3-2.3.9,0,0-.1,0-.2,0,0,0-.5-.7-.5-.7,0-.1,0-.3,0-.5,1.6-1.5,2.3-2.3,2.5-2.7,0,0,0-.1-.2-.1-.8,0-1.3.1-1.8.8,0,0-.2,0-.2-.1.2-.5.2-.5.2-.7,0-.1-.1-.3-.5-.3,0,0,0-.2,0-.2.4,0,.7-.2.8-.3,0-.1,0-.5,0-.5,0,0,.2-.1.2,0,0,0,.2.5.4.6.2,0,1,.3,1.1.3.2,0,.2-.2.2-.3,0-.3-.2-.6-.3-.7-.2,0-.9-.6-.9-.6,0,0,0-.2,0-.2,0,0,.8.2.9.3,0,0,.2,0,.2-.1,0,0,.1-.5.2-.6,0,0,.2,0,.2,0,0,0,0,.7,0,.8,0,0,.2.7.4.9.2.2.3.2.6,0,.3-.1,1.9-1,2.3-1.5.1-.1.2-.5-.5-.7-.6-.2-3.6-1.2-5.4,1,0,0-.2,0-.2,0,.4-.7.4-.8.4-1,0-.2-.1-.3-.7-.3,0,0,0-.2,0-.2ZM181.6,39.1c.7-.2,1-.3,1-.4s-.6-.7-.7-.7c0,0,0-.2.1-.1.3.2.9.4,1.2.2.3-.2.2-.8.2-.9,0,0,.1-.1.2,0,0,0,.4,1,.7,1.3.3.3,1,.2,1.2,0,.2-.3-.3-1.1-.4-1.2,0,0,0-.2,0-.1,0,0,.4.3.6.5.2.3.5,1,.8,1.1.3.2,1.1.4,1.2.2.1-.2-.3-.9-.4-.9,0,0,0-.2.1-.1.7.5,1.4,1.7,1.4,2.4s-1.1,1.5-3.1,2.4c0,0-.2,0-.2.1-.3.2-.2.3,1,1.1,0,0,0,0,.1,0h1.6v4s0,0,0,0c-.6-.2-.9-.8-.9-.8,0,0-.2.8-.7.9-.5.1-1.1-.7-1.9-2,0,0-.9.3-2.3.9,0,0-.1,0-.2,0,0,0-.5-.7-.5-.7,0-.1,0-.3,0-.5,1.6-1.5,2.3-2.3,2.5-2.7,0,0,0-.1-.2-.1-.8,0-1.3.1-1.8.8,0,0-.2,0-.2-.1.2-.5.2-.5.2-.7,0-.1-.1-.3-.5-.3,0,0,0-.2,0-.2.4,0,.7-.2.8-.3,0-.1,0-.5,0-.5,0,0,.2-.1.2,0,0,0,.2.5.4.6.2,0,1,.3,1.1.3.2,0,.2-.2.2-.3,0-.3-.2-.6-.3-.7-.2,0-.9-.6-.9-.6,0,0,0-.2,0-.2,0,0,.8.2.9.3,0,0,.2,0,.2-.1,0,0,.1-.5.2-.6,0,0,.2,0,.2,0,0,0,0,.7,0,.8,0,0,.2.7.4.9.2.2.3.2.6,0,.3-.1,1.9-1,2.3-1.5.1-.1.2-.5-.5-.7-.6-.2-3.6-1.2-5.4,1,0,0-.2,0-.2,0,.4-.7.4-.8.4-1,0-.2-.1-.3-.7-.3,0,0,0-.2,0-.2Z"/>
      <path class="st2" d="M184.5,44c-.2,0-.3.2-.3.4,0,.2.2.3.4.2.2,0,.3-.2.3-.4,0-.2-.2-.3-.4-.2Z"/>
      <path class="st2" d="M192.6,44c-.2,0-.3.2-.3.4,0,.2.2.3.4.2.2,0,.3-.2.3-.4,0-.2-.2-.3-.4-.2Z"/>
      <path class="st2" d="M200.8,44c-.2,0-.3.2-.3.4,0,.2.2.3.4.2.2,0,.3-.2.3-.4,0-.2-.2-.3-.4-.2Z"/>
      <polygon class="st2" points="207.3 30 193.3 23.9 179.2 30 179.2 31.1 207.3 31.1 207.3 30"/>
      <path class="st2" d="M216.7,26.9c.7,0,1.2-.6,1.2-1.2s-.6-1.2-1.2-1.2-1.2.6-1.2,1.2.6,1.2,1.2,1.2Z"/>
      <path class="st2" d="M170,26.9c.7,0,1.2-.6,1.2-1.2s-.6-1.2-1.2-1.2-1.2.6-1.2,1.2.6,1.2,1.2,1.2Z"/>
      <path class="st2" d="M165.4,39.1l1.4.2c.6.1,1.8.3,2.1.5.1,0,.2.3.2.6v.3s.2.1.2.1h.1c0,0,0-1.3,0-1.3l.2-1.3s-.1-.1-.1-.1h-.2s0,.3,0,.3c0,.3-.1.4-.3.5-.2,0-.7,0-2.3-.2l-1.3-.2c-1.3-.2-2.8-.9-2.5-2.7.1-.7.4-1.1.8-1.4.5-.4,1.4-.5,2.5-.3l2.4.4c1.2.2,1.3.2,1.2.9v.3c0,0,0,0,.1.1,0,0,.2,0,.2,0,0,0,.3-1.4.3-1.4l.3-1.4c0,0,0-.1-.1-.1,0,0-.1,0-.2,0,0,0,0,.3,0,.3-.2.6-.3.6-1.5.4l-2.6-.5c-1.3-.2-2.2-.1-2.8.4-.5.4-.8,1.1-1,2-.2.9,0,1.7.5,2.3.5.6,1.3,1,2.5,1.3Z"/>
      <path class="st2" d="M170.7,50.4c0,0,.2.2.4.5h0c0,.2.2.2.2.2,0,0,0,0,.1-.1,0,0-.4-1.1-.4-1.1l-.4-1.3c0,0-.1,0-.2,0,0,0-.1,0-.2.1,0,0,0,.2,0,.2,0,.4,0,.6,0,.7-.2.2-.9.5-2.1.8l-2.3.6c-.2,0-.4.1-.4,0,0,0,1.5-2.3,1.5-2.3l.9-1.4v-.2c.5-.6,1.4-2,1.9-2.3,0,0,0,0,0,0,0,0-.1-.5-.1-.5,0,0-.2-1.2-.2-1.2,0,0,0,0-.2,0,0,0-.2,0-.2.1,0,0,0,.2,0,.2,0,.2,0,.5-.1.7-.2.3-.4.3-.7.4l-3.2.8h-.2c-.6.2-1.7.5-2.1.5-.1,0-.2-.2-.3-.4,0,0,0-.3,0-.3,0,0-.2,0-.2,0h-.2c0,.2.3,1.3.3,1.3l.2,1.3s.2,0,.2,0h.2c0-.1,0-.1,0-.1,0,0,0-.4,0-.4,0-.1,0-.2,0-.3,0-.1,0-.2,0-.3.3-.3,2-.7,2.2-.8l2.4-.6c.2,0,.5-.1.6-.1,0,0-1.1,1.6-1.1,1.6l-2.2,3.3c-.9,1.3-1.1,1.7-1.3,1.8,0,.2.1.2.2.2.2,0,.8-.3,1.9-.5l2.8-.7c.5-.1,1.8-.5,2.2-.4Z"/>
      <path class="st2" d="M174.5,55.8c0,0,.1-.1.1-.2,0,0-.8-1.2-.8-1.2l-.8-1.2c0,0-.2,0-.2,0,0,0-.1,0-.1.1,0,0,.1.3.1.3.3.5.2.6-.8,1.3l-3.3,2.3c-1,.7-1.1.7-1.5.2l-.2-.2c0,0-.2,0-.2,0,0,0,0,.1,0,.1,0,0,.8,1.2.8,1.2l.8,1.2c0,0,.2,0,.2,0,0,0,.1,0,.1-.1,0,0-.1-.3-.1-.3-.3-.6-.2-.7.8-1.3l3.3-2.3c1-.7,1.1-.7,1.5-.3l.2.2c0,0,.2,0,.2,0Z"/>
      <path class="st2" d="M182.3,62.2c0,0,0-.1,0-.2,0,0-.9-.6-.9-.6l-.9-.7c0,0-.2,0-.2,0,0,0,0,0,0,.1,0,0,0,0,0,0,0,0,.2.2.2.2.2.2.3.3.3.4,0,0,0,0,0,0l-.3.3-2.4,1.3s-1.9,1.1-2.4,1.3c0-.2,1-4,1-4,.2-.9.5-1.5.5-1.6,0,0,.1,0,.5.2h.1c0,0,.1,0,.2,0,0,0,0-.1,0-.2,0,0-1.1-.9-1.1-.9l-.9-.8c0,0-.1,0-.2,0,0,0,0,.1,0,.2,0,0,.2.2.2.2.3.3.3.6.1,1.3l-1.4,5.2c-.1.5-.3,1-.5,1.5,0,0,.1.2.1.2,0,0,.1,0,.1,0,.6-.4,1.8-1.1,2.7-1.6l1.3-.7c1.2-.6,2.1-1.1,2.7-1.4.3-.1.5-.1.7,0l.3.2c0,0,.2,0,.2-.1Z"/>
      <path class="st2" d="M189.3,64.4c-.1,0-.8-.2-1.4-.4,0,0-2-.6-2-.6l-1.3-.4c0,0-.1,0-.2.1,0,0,0,.1,0,.2,0,0,.2,0,.2,0,.6.3.6.4.2,1.5l-1.2,3.9c-.3,1.1-.4,1.2-1,1.1h-.4c0,0-.1,0-.1.1,0,0,0,.1,0,.2,0,0,1.5.4,1.5.4l1,.3,2.9.9c.3-.3.8-1,1-1.4,0,0,0-.1-.1-.2,0,0-.1,0-.2,0-.4.4-.9.8-1.1.8-.3,0-.6,0-1.4-.3-1-.3-1.1-.5-1.2-.6-.1-.2,0-.6.1-1.1l.5-1.5c0-.2,0-.2.4-.2l.6.2c.4.1.7.2.8.3.2.1.2.3.2.5v.4c0,0,0,.1.1.1,0,0,.1,0,.2,0,0,0,.1-.4.1-.4l.2-.6.2-.6.2-.4c0,0,0-.1-.1-.1,0,0-.2,0-.2,0,0,0-.2.4-.2.4-.1.3-.2.3-.3.3-.1,0-.5,0-.9-.2l-.6-.2q-.3,0-.2-.4l.7-2.1c0-.2,0-.3.1-.3,0,0,.1,0,.3,0l.8.2c.5.1.8.3,1,.4.5.3.5.7.5,1.2h0c0,.1,0,.2.1.2,0,0,.1,0,.2,0,0,0,0-.2,0-.2.1-.5.2-1.2.2-1.3h0s0,0,0,0Z"/>
      <path class="st2" d="M200.6,71.2c-.3,0-.6,0-.8-.2-.9-.5-1.6-1.4-2.6-2.7,0,0,0-.2,0-.2.3-.2,1.3-.8,1.2-2,0-.9-.7-1.3-1.1-1.5-.5-.2-1.1-.2-1.7-.1h-.2c-1,0-1.8.1-2.5.2,0,0,0,0,0,.2,0,0,0,.2,0,.2,0,0,.4,0,.4,0,.4,0,.5.2.6,1.3l.4,4.1c.1,1.2,0,1.3-.5,1.4h-.3c0,.1,0,.2,0,.3,0,0,0,.1,0,.1,0,0,1.4-.1,1.4-.1h1.3c0,0,0-.2,0-.2,0,0,0-.2,0-.2,0,0-.3,0-.3,0-.6,0-.7-.2-.8-1.3v-1.4q-.2-.2.3-.3c.4,0,.6,0,.8.3l1.3,1.5c.9,1,1.5,1.3,2.5,1.1h.5c0-.2,0-.2,0-.3,0,0,0,0,0,0ZM195.7,68.2c-.6,0-.7,0-.7,0,0,0,0-.2,0-.3l-.3-2.6c0-.1,0-.2,0-.2,0,0,.3,0,.6-.1,1.3,0,1.9.7,1.9,1.5,0,.6,0,1.1-.4,1.4-.3.3-.7.4-1.1.4Z"/>
      <path class="st2" d="M205.4,65h-1.1c-.7,0-1.2-.3-1.5-.7,0-.1-.2-.4-.2-.6,0-.3.1-.7.7-1.1.9-.5,1.5,0,1.9.3,0,0,.1,0,.2,0,0,0,.1-.1.1-.2-.3-.5-.7-.9-.9-1.1,0,0-.4.1-.4.1-.3,0-.7.2-1,.4-1.2.7-1.6,1.9-1,2.9.5.8,1.4,1,2.1,1.1h1.3c.9.1,1.3.5,1.6.9.2.3.2.6.1.9,0,.3-.3.6-.7.8-1,.6-1.9,0-2.5-.5,0,0-.1,0-.2,0,0,0-.1.1-.1.2.3.5.8,1.1,1.1,1.3.3,0,1,0,1.8-.5.7-.4,1.1-.9,1.3-1.5,0-.2,0-.4,0-.5,0-.3-.1-.7-.3-1-.4-.8-1.2-1.2-2.3-1.2Z"/>
      <path class="st2" d="M215.1,63s-.3.2-.3.2c-.5.4-.6.3-1.4-.6l-2.7-3c-.8-.9-.9-1-.5-1.5l.2-.2c0,0,0-.2,0-.2,0,0-.1,0-.2,0,0,0-1,1-1,1l-1.1.9c0,0,0,.2,0,.2,0,0,0,.1.2,0,0,0,.2-.2.2-.2.5-.4.6-.3,1.4.6l2.7,3c.8.9.9,1,.4,1.5l-.2.2c0,.1,0,.2,0,.2,0,0,.1,0,.2,0,0,0,1-1,1-1l1.1-.9c0,0,0-.2,0-.2,0,0,0,0-.2,0Z"/>
      <path class="st2" d="M221.1,55.1s-.1,0-.2,0c0,0-.2.3-.2.3-.4.5-.5.5-1.5-.1l-4.3-2.5c-.2,0-.2-.1-.3-.2,0,0,0-.1,0-.2l.4-.7c.3-.5.6-.9.9-1,.1,0,.4,0,.8.2,0,0,.2,0,.2-.1,0,0,0-.1,0-.2-.3-.2-1.1-.7-1.4-1-.1,0-.2.1-.2.2.2.3.1.4-.2.9l-2.3,4c-.3.5-.4.7-.7.6,0,0-.2.2-.2.2.4.3.9.8,1.3,1.2,0,0,.2,0,.2,0,0,0,0-.1,0-.2-.2-.3-.3-.5-.4-.8,0-.3.2-.9.4-1.3l.3-.5c0-.1.1-.2.2-.2,0,0,.1,0,.3.1l4.4,2.5c1,.6,1.1.7.9,1.2l-.2.4c0,0,0,.1.1.2,0,0,.1,0,.2,0,0,0,.8-1.4.8-1.4l.8-1.3c0,0,0-.1-.1-.2Z"/>
      <path class="st2" d="M223.4,42.8c0,0-.1,0-.2.1,0,0,0,.1,0,.2.5.4.8.8.9,1,0,.3,0,.6-.1,1.4-.2,1-.4,1.2-.5,1.3-.2.1-.6,0-1.2,0l-1.6-.3h-.2c0-.1,0-.2,0-.4v-.6c.2-.4.3-.7.3-.8,0-.2.3-.2.4-.2h.5c0,0,.1-.1.1-.2,0,0,0-.1,0-.2,0,0-.4,0-.4,0h-.7c0,0-.7-.3-.7-.3h-.4c0,0-.1,0-.1,0,0,0,0,.2,0,.2,0,0,.5.2.5.2.3.1.3.2.3.3,0,.1,0,.5-.1.9v.6q-.2.3-.5.3l-2.2-.4q-.4,0-.3-.4l.2-.8c0-.5.2-.8.3-1,.2-.5.6-.5,1.1-.6h0c0,0,0,0,.1-.2,0,0,0-.1,0-.2,0,0-.2,0-.2,0-.5,0-1.2-.1-1.4,0h0s0,0,0,0c0,.1-.1.8-.2,1.4,0,0-.4,2.1-.4,2.1l-.3,1.3c0,0,0,.1.2.1,0,0,.1,0,.2,0,0,0,0-.2,0-.2.2-.6.3-.6,1.5-.4l4,.8c1.2.2,1.3.3,1.2.9v.4c0,0,.1.1.2.1,0,0,.1,0,.2,0,0,0,.3-1.5.3-1.5l.2-1,.6-3c-.3-.2-1.1-.7-1.5-.8Z"/>
      <path class="st2" d="M217,35.1l-.2-.8c-.1-.6-.1-1,0-1.3,0-.1.3-.3.7-.4,0,0,0-.2,0-.2,0,0,0-.1-.1-.1-.3,0-1.2.2-1.7.2,0,0,0,.2,0,.3.3.1.4.2.5.8l1,4.5c.1.6.2.8-.1,1,0,0,0,.2,0,.3.5,0,1.2,0,1.8.1,0,0,.1-.1.1-.2,0,0,0-.1,0-.2-.3,0-.6-.1-.9-.4-.3-.2-.4-.8-.6-1.3v-.6c-.2-.1-.2-.2-.2-.3,0,0,.1,0,.3,0l4.9-.9c1.2-.2,1.3-.2,1.5.4v.4c.2,0,.2,0,.3,0,0,0,.1,0,.1-.1,0,0-.3-1.5-.3-1.5l-.2-1.5c0,0-.1,0-.2,0,0,0-.1,0-.2,0,0,0,0,.4,0,.4,0,.6,0,.7-1.2.9l-4.9.9q-.3,0-.4-.2Z"/>
      <path class="st2" d="M172.7,18.1s.2-.2.2-.2c.5-.3.6-.3,1.2.6,0,0,1.6,2.1,1.6,2.1.8,1.1,1.5,1.6,2.3,1.6.6,0,1.3-.2,2.1-.7.7-.5,1.2-1.1,1.3-1.8.1-.8-.2-1.7-.9-2.7l-.7-1.1c-.2-.2-1-1.5-1.1-2,0-.1,0-.3.3-.5l.2-.2s0-.2,0-.2h-.1c0,0-1,.6-1,.6l-1.1.6s0,.2,0,.2h.1c0,.1.3,0,.3,0,.2-.1.4-.2.6,0,.3.2.9,1,1.3,1.6l.9,1.3c.5.7.7,1.4.8,1.9,0,.7-.3,1.2-.9,1.7-1.3.9-2.4.5-3.5-1.1l-1.4-2h0c-.6-1-.7-1.1-.3-1.5l.2-.2c0,0,0-.1,0-.2,0,0,0,0-.2,0,0,0-1.1.9-1.1.9l-1.1.8c0,0,0,.2,0,.2,0,0,0,0,.1,0Z"/>
      <path class="st2" d="M183.8,11.3c.7,0,.8,0,.9.7l.3,2.5.2,2.3v.3c0,.8,0,.9-.5,1,0,0-.2,0-.2,0,0,0,0,.1,0,.2,0,0,0,.1.1.2,0,0,1.2-.3,1.2-.3l1.2-.3c0,0,0-.1,0-.2,0,0,0-.1-.1-.2,0,0-.5,0-.5,0-.2,0-.3,0-.3,0-.1,0-.2-.4-.3-.8l-.3-2.5v-.2s-.2-1.6-.2-1.9c.1.2.5.8.5.8l.4.6,1.4,2,.2.3c.4.5.9,1.3,1.2,1.8,0,0,.1,0,.2,0,0,0,.1,0,.1,0,.1-.5.4-1.6.8-2.7l.7-2.1.2-.7s.2-.5.2-.7c0,.2.8,4.5.8,4.5,0,.2,0,.4,0,.5,0,.3,0,.3-.4.4h-.3c0,0,0,.2,0,.2v.2c.1,0,1.5-.1,1.5-.1h1.3c0,0,0-.1,0-.2,0,0,0-.2,0-.2,0,0-.4,0-.4,0-.5,0-.5-.2-.6-.8h0c0,0-1-4.9-1-4.9-.1-.8-.1-.9.6-1.1h.2c0,0,0-.2,0-.2,0,0,0-.1,0-.2,0,0-1,.1-1,.1h-.9s0,0,0,0c0,0,0,0,0,.2,0,.5-.2,1.2-.5,2.1l-.7,2.5s-.5,1.6-.5,1.6c0,0-.8-1.2-.8-1.2v-.2c-.1,0-.1,0-.1,0l-1.7-2.4c-.4-.5-.8-1.2-.9-1.7h0c0,0-.9.2-.9.2,0,0-.9.2-.9.2,0,0,0,.1,0,.2,0,0,0,.1,0,.2,0,0,.2,0,.2,0Z"/>
      <path class="st2" d="M197.9,17.5l1,.2,2.9.8c.3-.3.8-1.1.9-1.4,0,0,0-.1-.1-.2,0,0-.1,0-.2,0-.4.5-.8.8-1,.9-.3,0-.6,0-1.4-.2-1-.2-1.1-.4-1.2-.6-.1-.2,0-.6,0-1.2l.4-1.5v-.2c.1,0,.2,0,.4,0l.6.2c.4.1.7.2.8.3.2.1.2.3.2.5v.5c0,0,.1.1.2.1,0,0,.1,0,.2,0,0,0,0-.4,0-.4v-.7c.1,0,.3-.7.3-.7v-.4c.1,0,0-.1,0-.1,0,0-.2,0-.2,0,0,0-.2.4-.2.4-.1.3-.2.3-.3.3-.1,0-.5,0-.9-.2l-.6-.2q-.3,0-.3-.3l.6-2.2c0-.2,0-.3.1-.3,0,0,.1,0,.3,0l.8.2c.5.1.8.2,1,.3.5.3.5.6.5,1.1h0c0,.1,0,.2.2.2,0,0,.1,0,.2,0,0,0,0-.2,0-.2,0-.5.2-1.2.2-1.4h0s0,0,0,0c-.1,0-.8-.2-1.4-.3,0,0-2.1-.5-2.1-.5l-1.3-.4c0,0-.1,0-.2.2,0,0,0,.1,0,.2,0,0,.2,0,.2,0,.6.2.6.4.3,1.5l-1,3.9c-.3,1.1-.4,1.3-1,1.2h-.4c0,0-.1,0-.1.1,0,0,0,.1,0,.2,0,0,1.5.4,1.5.4Z"/>
      <path class="st2" d="M204.1,19.5l.7.4.3.2.6.4c0,0,.2,0,.2,0,0,0,0-.1,0-.2,0,0-.3-.2-.3-.2-.2-.2-.2-.2-.1-.3,0-.1.3-.3.7-.6l.8-.5c.2-.1.2-.1.5,0l1.5,1.1c.3.2.3.2.2.4,0,0-.4,1.3-.4,1.3,0,.2-.2.5-.2.6,0,0-.2,0-.4,0l-.3-.2c0,0-.1,0-.2,0,0,0,0,.1,0,.2,0,0,.2.2.2.2l.8.6,1,.9c0,0,.2,0,.2,0,0,0,0-.1,0-.2,0,0-.2-.2-.2-.2-.3-.3-.3-.6,0-1.5l1.4-4.6.2-.6.2-.6c.4,0,.9,0,1.1-.4.3-.5.2-1.1-.3-1.5-.5-.4-1.2-.2-1.5.2-.3.4-.3.9,0,1.2l-.6.4-2.7,1.8c0,0-2.2,1.4-1.5,1l-.7.5c-.3.2-.6.2-.8.1l-.3-.2c0,0-.1,0-.2.1,0,0,0,.1,0,.2,0,0,.3.2.3.2ZM211.2,14.5c.2-.3.6-.4.9-.2.3.2.3.6,0,.9-.2.3-.6.4-.9.2-.3-.2-.3-.6,0-.9ZM207.7,18.1s0,0,.1-.1c0,0,1.9-1.4,1.9-1.4,0,0,.4-.3.5-.3,0,.1-.2.6-.2.6l-.7,2.1c0,.1,0,.2-.1.2,0,0-.1,0-.2-.1l-1.3-.9c0,0-.2-.1-.2-.2h0Z"/>
    </g>
  </g>
  <g>
    <path class="st1" d="M22.6,108.9c0-2.4,0-6.7-.7-7.9-.3-.5-.9-.7-1.9-.8h-.9c-.2-.3-.2-.8,0-1,1.4,0,2.8.1,4.3.1s2.6,0,4-.1c.3.2.3.7,0,.9h-.9c-.9.2-1.7.5-1.9,1-.5,1.3-.5,5.6-.5,7.8v4.3c0,3.3-.5,6.8-2.7,9.1-1.6,1.8-4.4,2.8-7.3,2.8s-5.2-.5-7.1-2.1c-2-1.7-3-4.4-3-9v-9c0-4,0-4.6-2.3-4.8h-1c-.2-.2-.2-.9,0-1,1.9,0,3.2.1,4.7.1s2.8,0,4.7-.1c.2.1.3.8,0,.9h-.9c-2.2.3-2.3.9-2.3,4.9v8.2c0,6.1,1.9,10.1,7.7,10.1s7.6-4.3,7.6-10.1v-4.4Z"/>
    <path class="st1" d="M44.3,114.3c.9,1.8,1.7,3.5,2.6,5.2h0c1-1.8,2-3.8,2.9-5.7l3.6-7.3c1.7-3.5,2.8-5.5,2.9-7.3,1.3.1,2.1.1,2.8.1s2.2,0,3.4-.1c.2.2.2.8,0,1h-.8c-2.4.3-2.7,1-2.7,3.7,0,4,.1,11.1.4,16.5.1,1.9,0,2.9,1.9,3.1h1.2c.2.3.2.9,0,1.1-1.6,0-3.1-.1-4.5-.1s-3,0-4.6.1c-.3-.2-.3-.7,0-1h1.1c1.9-.3,1.9-.9,1.9-3.3v-15.8h-.2c-.3.4-1.7,3.5-2.5,4.9l-3.4,6.6c-1.7,3.3-3.4,6.9-4.1,8.7,0,.1-.2.2-.4.2s-.3,0-.3-.2c-.6-2-2.5-5.7-3.3-7.6l-3.4-7.3c-.8-1.7-1.6-3.7-2.4-5.5h0c-.2,2.4-.3,4.6-.4,6.8-.1,2.3-.3,5.7-.3,8.9s.2,3.4,1.7,3.5h1.4c.3.3.2,1,0,1.1-1.3,0-2.8-.1-4.2-.1s-2.6,0-3.9.1c-.2-.2-.3-.8,0-1h.8c1.6-.3,2.1-.6,2.4-3.2.2-2.5.4-4.6.6-8.4.2-3.2.3-6.4.4-8.5,0-2.4-.2-3-2.5-3.3h-.6c-.2-.3-.2-.9.2-1,1.1,0,2.1.1,3,.1s1.9,0,3.2-.1c-.2,1.5.8,3.8,2,6.3l4.3,8.8Z"/>
    <path class="st1" d="M70.6,105c0-4,0-4.5-2.3-4.8h-.6c-.2-.2-.2-.9,0-1,1.6,0,2.9.1,4.5.1h7.1c2.4,0,4.7,0,5.1-.1.2.6.5,3.4.6,5.1-.2.2-.8.3-.9,0-.6-1.8-.9-3.1-2.9-3.6-.8-.2-2-.2-3.7-.2h-2.7c-1.1,0-1.1,0-1.1,1.5v7.6c0,1.1.1,1.1,1.3,1.1h2.2c1.6,0,2.8,0,3.2-.2.5-.2.7-.4.9-1.3l.3-1.6c.2-.2.8-.2,1,0,0,.9-.2,2.4-.2,3.8s.2,2.8.2,3.6c-.2.3-.8.3-1,0l-.3-1.5c-.2-.7-.4-1.3-1.2-1.4-.5-.2-1.4-.2-2.9-.2h-2.2c-1.1,0-1.3,0-1.3,1v5.4c0,2,.1,3.3.7,4,.5.5,1.3.9,4.6.9s4-.2,4.9-.6c.7-.4,1.7-1.7,2.7-3.7.3-.2.8,0,.9.3-.3,1.3-1.2,4.3-1.7,5.3-3.4,0-6.8-.1-10.2-.1h-3.4c-1.6,0-2.9,0-5.2.1-.2-.1-.3-.7,0-1h1.3c2.2-.3,2.4-.9,2.4-4.9v-13.7Z"/>
    <path class="st1" d="M104.9,115.6c-.3-.8-.4-1-1.6-1h-5.7c-1,0-1.2.1-1.4.9l-1.3,4c-.6,1.7-.8,2.7-.8,3.2s.2.7,1.1.8h1.3c.3.3.3.9,0,1.1-1,0-2.2,0-4-.1-1.3,0-2.6,0-3.6.1-.2-.2-.3-.8,0-1h1.3c.9-.2,1.7-.6,2.3-2,.7-1.7,1.7-4.2,3.3-8.5l3.9-10.3c.5-1.4.8-2.1.6-2.7.9-.3,1.6-1,2-1.4.2,0,.5,0,.6.3.5,1.7,1.1,3.4,1.7,5.1l5.2,15.3c1.1,3.3,1.6,3.8,3.2,4h1c.3.3.2.9,0,1.1-1.6,0-2.9-.1-4.6-.1s-3.3,0-4.4.1c-.3-.2-.3-.8,0-1h1.1c.8-.2,1.3-.4,1.3-.8s-.2-1.1-.5-2l-1.7-5.2ZM97.3,112.2c-.3.9-.3.9.8.9h4.7c1.1,0,1.2-.2.8-1.2l-2.1-6.2c-.3-.9-.6-1.9-.9-2.4h0c-.1.2-.5,1.1-.9,2.2l-2.4,6.6ZM104.6,94.5c0,1.6-1.3,3.1-3.2,3.1s-3.2-1.4-3.2-3.1,1.3-3.1,3.2-3.1,3.2,1.5,3.2,3.1ZM101.4,96.5c1,0,1.7-.8,1.7-2s-.7-2-1.7-2-1.7.8-1.7,2,.8,2,1.7,2Z"/>
    <path class="st1" d="M148.6,108.9c0-2.4,0-6.7-.7-7.9-.3-.5-.9-.7-1.9-.8h-.9c-.2-.3-.2-.8,0-1,1.4,0,2.8.1,4.3.1s2.6,0,4-.1c.3.2.3.7,0,.9h-.9c-.9.2-1.7.5-1.9,1-.5,1.3-.5,5.6-.5,7.8v4.3c0,3.3-.5,6.8-2.7,9.1-1.6,1.8-4.4,2.8-7.3,2.8s-5.2-.5-7.1-2.1c-2-1.7-3-4.4-3-9v-9c0-4,0-4.6-2.3-4.8h-1c-.2-.2-.2-.9,0-1,1.9,0,3.2.1,4.7.1s2.8,0,4.7-.1c.2.1.3.8,0,.9h-.9c-2.2.3-2.3.9-2.3,4.9v8.2c0,6.1,1.9,10.1,7.7,10.1s7.6-4.3,7.6-10.1v-4.4Z"/>
    <path class="st1" d="M180.8,118c0,1.1,0,5.7.1,6.6,0,.2-.3.4-.7.4-.5-.6-1.6-2-4.9-5.7l-8.8-10c-1-1.2-3.6-4.3-4.4-5.1h0c-.2.5-.2,1.3-.2,2.5v8.3c0,1.8,0,6.7.7,7.9.2.4,1,.6,1.9.7h1.2c.2.4.2.9,0,1.1-1.7,0-3-.1-4.4-.1s-2.6,0-4,.1c-.3-.2-.3-.7,0-1h1c.9-.2,1.5-.5,1.7-.9.5-1.4.5-6,.5-7.8v-11c0-1.1,0-1.9-.8-2.7-.5-.5-1.4-.8-2.4-.9h-.6c-.2-.3-.2-.9,0-1,1.6.1,3.6.1,4.3.1s1.3,0,1.7-.1c.8,1.9,5.2,7,6.5,8.4l3.7,4.1c2.6,2.9,4.5,5.1,6.3,6.9h0c.2-.2.2-.8.2-1.6v-8.1c0-1.8,0-6.7-.8-7.9-.2-.3-.8-.6-2.4-.8h-.6c-.3-.3-.2-.9,0-1,1.7,0,3,.1,4.5.1s2.6,0,3.9-.1c.3.2.3.7,0,1h-.5c-1.2.3-2,.6-2.1.9-.6,1.4-.6,6.1-.6,7.8v9.1Z"/>
    <path class="st1" d="M191.6,105.1c0-4,0-4.7-2.3-4.9h-.9c-.2-.2-.2-.9,0-1,1.9,0,3.2.1,4.8.1s2.8,0,4.7-.1c.2.1.3.8,0,1h-.9c-2.2.3-2.3.9-2.3,4.9v13.5c0,4,0,4.6,2.3,4.8h.9c.2.3.2,1,0,1.1-1.9,0-3.2-.1-4.7-.1s-2.9,0-4.8.1c-.2-.1-.3-.7,0-1h.9c2.2-.4,2.3-.9,2.3-4.9v-13.5Z"/>
    <path class="st1" d="M204.9,103.4c-.9-2.1-1.4-2.9-3.1-3.1h-.7c-.3-.3-.2-.8,0-1,1.1,0,2.3.1,4,.1s3,0,4.6-.1c.3.2.3.7,0,1h-.6c-1.4.3-1.7.5-1.8.8,0,.4.7,2.4,1.9,5.3,1.7,4.4,3.5,8.8,5.4,13.1,1.2-2.5,2.8-6.4,3.6-8.4,1.1-2.6,2.9-6.9,3.5-8.5.3-.8.3-1.2.3-1.5s-.4-.6-1.7-.7h-.7c-.3-.3-.2-.9,0-1,1.1,0,2.5.1,4,.1s2.4,0,3.7-.1c.3.2.3.8,0,1h-1.1c-.9.2-1.5.6-2,1.4-1.1,1.8-2.5,4.9-4.3,8.7l-2.1,4.7c-1.5,3.5-3.3,7.9-4,9.9-.1,0-.3.1-.4.1s-.4,0-.6-.1c-.4-1.6-1.1-3.5-1.7-5.1l-6.7-16.5Z"/>
    <path class="st1" d="M233.2,105c0-4,0-4.5-2.3-4.8h-.6c-.2-.2-.2-.9,0-1,1.6,0,2.9.1,4.5.1h7.1c2.4,0,4.7,0,5.1-.1.2.6.5,3.4.6,5.1-.2.2-.8.3-1,0-.6-1.8-.9-3.1-2.9-3.6-.8-.2-2-.2-3.7-.2h-2.7c-1.1,0-1.1,0-1.1,1.5v7.6c0,1.1.1,1.1,1.3,1.1h2.2c1.6,0,2.8,0,3.2-.2.5-.2.7-.4.9-1.3l.3-1.6c.2-.2.8-.2,1,0,0,.9-.2,2.4-.2,3.8s.2,2.8.2,3.6c-.2.3-.8.3-1,0l-.3-1.5c-.2-.7-.4-1.3-1.2-1.4-.5-.2-1.4-.2-2.9-.2h-2.2c-1.1,0-1.3,0-1.3,1v5.4c0,2,.1,3.3.7,4,.5.5,1.3.9,4.6.9s4-.2,4.9-.6c.7-.4,1.7-1.7,2.7-3.7.3-.2.8,0,1,.3-.3,1.3-1.2,4.3-1.7,5.3-3.4,0-6.8-.1-10.2-.1h-3.4c-1.6,0-2.9,0-5.2.1-.2-.1-.3-.7,0-1h1.3c2.2-.3,2.4-.9,2.4-4.9v-13.7Z"/>
    <path class="st1" d="M256.9,105.1c0-3.6-.1-4.3-1.7-4.4l-1.2-.2c-.3-.2-.3-.8,0-1,2.1-.2,4.7-.3,8.5-.3s4.6.2,6.3,1.1c1.8,1,3.2,2.7,3.2,5.3s-2.8,5.6-4.8,6.3c-.2.2,0,.6.2.9,3,4.9,5.1,7.9,7.6,10.1.6.6,1.6,1,2.6,1.1.2,0,.2.4,0,.5-.3.1-1,.2-1.7.2-3.2,0-5.2-1-7.9-4.8-1-1.4-2.5-4-3.7-5.7-.6-.8-1.2-1.2-2.7-1.2s-1.8,0-1.8.8v4.8c0,4,0,4.4,2.3,4.7h.8c.2.3.2,1,0,1.1-1.7,0-3-.1-4.5-.1s-3,0-4.7.1c-.2-.1-.3-.7,0-1h1c2.2-.4,2.3-.9,2.3-4.9v-13.6ZM260,110.5c0,.7,0,1.1.1,1.3.1.1.7.2,2.6.2s2.8-.2,3.9-1c1-.8,1.9-2.1,1.9-4.7s-1.9-5.9-6.1-5.9-2.5.2-2.5,1.2v8.9Z"/>
    <path class="st1" d="M286.6,125c-3.2,0-5.2-1-5.9-1.4-.5-.8-1-3.5-1-5.3.2-.3.8-.3.9-.1.6,1.9,2.1,5.7,6.5,5.7s4.7-2.1,4.7-4.4-.3-3.5-3.1-5.3l-3.6-2.4c-1.9-1.3-4.1-3.4-4.1-6.5s2.8-6.5,7.8-6.5,2.5.2,3.5.5c.5.2,1,.2,1.3.2.3.9.7,3,.7,4.6-.2.2-.8.3-1,.1-.5-1.8-1.5-4.3-5.2-4.3s-4.5,2.5-4.5,4.2,1.8,3.8,3.2,4.7l3,1.9c2.4,1.5,4.7,3.7,4.7,7.3s-3.2,7-8.1,7Z"/>
    <path class="st1" d="M303,105.1c0-4,0-4.7-2.3-4.9h-1c-.2-.2-.2-.9,0-1,1.9,0,3.2.1,4.8.1s2.8,0,4.7-.1c.2.1.3.8,0,1h-.9c-2.2.3-2.3.9-2.3,4.9v13.5c0,4,0,4.6,2.3,4.8h.9c.2.3.2,1,0,1.1-1.9,0-3.2-.1-4.7-.1s-2.9,0-4.8.1c-.2-.1-.3-.7,0-1h1c2.2-.4,2.3-.9,2.3-4.9v-13.5Z"/>
    <path class="st1" d="M326.5,118.7c0,4,0,4.6,2.3,4.7h1.2c.2.3.2,1,0,1.1-2.2,0-3.5-.1-5-.1s-2.8,0-5.3.1c-.2-.1-.3-.8,0-1h1.4c2.2-.3,2.4-.9,2.4-4.9v-17c0-1.2,0-1.2-1.1-1.2h-2.1c-1.6,0-3.7,0-4.7,1-.9.8-1.3,1.7-1.7,2.6-.3.2-.8,0-1-.3.6-1.7,1.2-4.1,1.4-5.7.1,0,.6-.1.7,0,.2,1.2,1.5,1.2,3.2,1.2h15.4c2.1,0,2.4,0,3-1.1.2,0,.6,0,.7.1-.4,1.6-.7,4.6-.6,5.8-.2.3-.8.3-1,0-.1-1-.4-2.4-1-2.8-.9-.6-2.3-1-4.4-1h-2.7c-1.1,0-1.1,0-1.1,1.3v16.9Z"/>
    <path class="st1" d="M344,105c0-4,0-4.5-2.3-4.8h-.6c-.2-.2-.2-.9,0-1,1.6,0,2.9.1,4.5.1h7.1c2.4,0,4.7,0,5.1-.1.2.6.5,3.4.6,5.1-.2.2-.8.3-.9,0-.6-1.8-.9-3.1-2.9-3.6-.8-.2-2-.2-3.7-.2h-2.7c-1.1,0-1.1,0-1.1,1.5v7.6c0,1.1.1,1.1,1.3,1.1h2.2c1.6,0,2.8,0,3.2-.2.5-.2.7-.4.9-1.3l.3-1.6c.2-.2.8-.2,1,0,0,.9-.2,2.4-.2,3.8s.2,2.8.2,3.6c-.2.3-.8.3-1,0l-.3-1.5c-.2-.7-.4-1.3-1.2-1.4-.5-.2-1.4-.2-2.9-.2h-2.2c-1.1,0-1.3,0-1.3,1v5.4c0,2,.1,3.3.7,4,.5.5,1.3.9,4.6.9s4-.2,4.9-.6c.7-.4,1.7-1.7,2.7-3.7.3-.2.8,0,.9.3-.3,1.3-1.2,4.3-1.7,5.3-3.4,0-6.8-.1-10.2-.1h-3.4c-1.6,0-2.9,0-5.2.1-.2-.1-.3-.7,0-1h1.3c2.2-.3,2.4-.9,2.4-4.9v-13.7Z"/>
    <path class="st1" d="M376.8,118.7c0,4,0,4.6,2.3,4.7h1.2c.2.3.2,1,0,1.1-2.2,0-3.5-.1-5-.1s-2.8,0-5.3.1c-.2-.1-.3-.8,0-1h1.4c2.2-.3,2.4-.9,2.4-4.9v-17c0-1.2,0-1.2-1.1-1.2h-2.1c-1.6,0-3.7,0-4.7,1-.9.8-1.3,1.7-1.7,2.6-.3.2-.8,0-1-.3.6-1.7,1.2-4.1,1.4-5.7.1,0,.6-.1.7,0,.2,1.2,1.5,1.2,3.2,1.2h15.4c2.1,0,2.4,0,3-1.1.2,0,.6,0,.7.1-.4,1.6-.7,4.6-.6,5.8-.2.3-.8.3-1,0-.1-1-.4-2.4-1-2.8-.9-.6-2.3-1-4.4-1h-2.7c-1.1,0-1.1,0-1.1,1.3v16.9Z"/>
  </g>
</svg>